0
SECTION
2
HEADER
9
$INSUNITS
70
4
9
$ACADVER
1
AC1014
9
$HANDSEED
5
FFFF
0
ENDSEC
0
SECTION
2
TABLES
0
TABLE
2
VPORT
5
8
100
AcDbSymbolTable
0
ENDTAB
0
TABLE
2
LTYPE
5
5
100
AcDbSymbolTable
0
LTYPE
5
14
100
AcDbSymbolTableRecord
100
AcDbLinetypeTableRecord
2
BYBLOCK
70
0
0
LTYPE
5
15
100
AcDbSymbolTableRecord
100
AcDbLinetypeTableRecord
2
BYLAYER
70
0
0
ENDTAB
0
TABLE
2
LAYER
5
2
100
AcDbSymbolTable
70
2
0
LAYER
5
50
100
AcDbSymbolTableRecord
100
AcDbLayerTableRecord
2
0
70
0
6
CONTINUOUS
0
ENDTAB
0
TABLE
2
STYLE
5
3
100
AcDbSymbolTable
70
1
0
STYLE
5
11
100
AcDbSymbolTableRecord
100
AcDbTextStyleTableRecord
2
STANDARD
70
0
0
ENDTAB
0
TABLE
2
VIEW
5
6
100
AcDbSymbolTable
70
0
0
ENDTAB
0
TABLE
2
UCS
5
7
100
AcDbSymbolTable
70
0
0
ENDTAB
0
TABLE
2
APPID
5
9
100
AcDbSymbolTable
70
2
0
APPID
5
12
100
AcDbSymbolTableRecord
100
AcDbRegAppTableRecord
2
ACAD
70
0
0
ENDTAB
0
TABLE
2
DIMSTYLE
5
A
100
AcDbSymbolTable
70
1
0
ENDTAB
0
TABLE
2
BLOCK_RECORD
5
1
100
AcDbSymbolTable
70
1
0
BLOCK_RECORD
5
1F
100
AcDbSymbolTableRecord
100
AcDbBlockTableRecord
2
*MODEL_SPACE
0
BLOCK_RECORD
5
1B
100
AcDbSymbolTableRecord
100
AcDbBlockTableRecord
2
*PAPER_SPACE
0
ENDTAB
0
ENDSEC
0
SECTION
2
BLOCKS
0
BLOCK
5
20
100
AcDbEntity
100
AcDbBlockBegin
2
*MODEL_SPACE
0
ENDBLK
5
21
100
AcDbEntity
100
AcDbBlockEnd
0
BLOCK
5
1C
100
AcDbEntity
100
AcDbBlockBegin
2
*PAPER_SPACE
0
ENDBLK
5
1D
100
AcDbEntity
100
AcDbBlockEnd
0
ENDSEC
0
SECTION
2
ENTITIES
0
SPLINE
5
100
100
AcDbEntity
8
0
100
AcDbSpline
70
4
71
3
72
8
73
4
74
0
42
0.000000001
43
0.0000000001
44
0.0000000001
40
0
40
0
40
0
40
0
40
1
40
1
40
1
40
1
41
1
41
1
41
1
41
1
10
53.570634557983396
20
-0.31669354276410411
30
0
10
50.387993438274663
20
-0.84914266548467321
30
0
10
47.549110958111889
20
-1.9569616463096893
30
0
10
44.943906472656252
20
-2.9893793352454745
30
0
0
SPLINE
5
101
100
AcDbEntity
8
0
100
AcDbSpline
70
4
71
3
72
8
73
4
74
0
42
0.000000001
43
0.0000000001
44
0.0000000001
40
0
40
0
40
0
40
0
40
1
40
1
40
1
40
1
41
1
41
1
41
1
41
1
10
44.943906472656252
20
-2.9893793352454745
30
0
10
40.308930967801189
20
-4.8274308275132602
30
0
10
36.069646706026589
20
-6.4978594478126119
30
0
10
32.214689920084638
20
-6.2931159398392644
30
0
0
SPLINE
5
102
100
AcDbEntity
8
0
100
AcDbSpline
70
4
71
3
72
8
73
4
74
0
42
0.000000001
43
0.0000000001
44
0.0000000001
40
0
40
0
40
0
40
0
40
1
40
1
40
1
40
1
41
1
41
1
41
1
41
1
10
32.214689920084638
20
-6.2931159398392644
30
0
10
29.710823279954255
20
-6.160293664127769
30
0
10
26.95595217627347
20
-5.2305377341473056
30
0
10
23.933030958170569
20
-4.1401190514519621
30
0
0
SPLINE
5
103
100
AcDbEntity
8
0
100
AcDbSpline
70
4
71
3
72
8
73
4
74
0
42
0.000000001
43
0.0000000001
44
0.0000000001
40
0
40
0
40
0
40
0
40
1
40
1
40
1
40
1
41
1
41
1
41
1
41
1
10
23.933030958170569
20
-4.1401190514519621
30
0
10
20.890447801761212
20
-3.043320259442766
30
0
10
17.258020537056751
20
-1.732497800456287
30
0
10
13.082524077514643
20
-2.1727253430976536
30
0
0
SPLINE
5
104
100
AcDbEntity
8
0
100
AcDbSpline
70
4
71
3
72
8
73
4
74
0
42
0.000000001
43
0.0000000001
44
0.0000000001
40
0
40
0
40
0
40
0
40
1
40
1
40
1
40
1
41
1
41
1
41
1
41
1
10
13.082524077514643
20
-2.1727253430976536
30
0
10
10.203788846892571
20
-2.476650550402554
30
0
10
7.468612443614929
20
-3.6018698293548357
30
0
10
5.2609572801513629
20
-5.4393413116853262
30
0
0
SPLINE
5
105
100
AcDbEntity
8
0
100
AcDbSpline
70
4
71
3
72
8
73
4
74
0
42
0.000000001
43
0.0000000001
44
0.0000000001
40
0
40
0
40
0
40
0
40
1
40
1
40
1
40
1
41
1
41
1
41
1
41
1
10
5.2609572801513629
20
-5.4393413116853262
30
0
10
3.0693181016639146
20
-7.26173253563773
30
0
10
1.5312593504092795
20
-9.6287530910011139
30
0
10
0.69837664835611357
20
-12.232417700907103
30
0
0
SPLINE
5
106
100
AcDbEntity
8
0
100
AcDbSpline
70
4
71
3
72
8
73
4
74
0
42
0.000000001
43
0.0000000001
44
0.0000000001
40
0
40
0
40
0
40
0
40
1
40
1
40
1
40
1
41
1
41
1
41
1
41
1
10
0.69837664835611357
20
-12.232417700907103
30
0
10
-0.85049827510186193
20
-17.073760650089955
30
0
10
0.21228307979164004
20
-22.420292254926082
30
0
10
3.5356116630859291
20
-26.33825938344232
30
0
0
SPLINE
5
107
100
AcDbEntity
8
0
100
AcDbSpline
70
4
71
3
72
8
73
4
74
0
42
0.000000001
43
0.0000000001
44
0.0000000001
40
0
40
0
40
0
40
0
40
1
40
1
40
1
40
1
41
1
41
1
41
1
41
1
10
3.5356116630859291
20
-26.33825938344232
30
0
10
4.0789101926003362
20
-26.978590354557475
30
0
10
4.545058664737061
20
-27.524379705843039
30
0
10
4.8775377824266588
20
-28.008688003742876
30
0
0
SPLINE
5
108
100
AcDbEntity
8
0
100
AcDbSpline
70
4
71
3
72
8
73
4
74
0
42
0.000000001
43
0.0000000001
44
0.0000000001
40
0
40
0
40
0
40
0
40
1
40
1
40
1
40
1
41
1
41
1
41
1
41
1
10
4.8775377824266588
20
-28.008688003742876
30
0
10
6.5082524233868178
20
-30.383828698231994
30
0
10
7.3122529970683754
20
-33.492681963791263
30
0
10
7.3697036737433876
20
-36.657796193297003
30
0
0
SPLINE
5
109
100
AcDbEntity
8
0
100
AcDbSpline
70
4
71
3
72
8
73
4
74
0
42
0.000000001
43
0.0000000001
44
0.0000000001
40
0
40
0
40
0
40
0
40
1
40
1
40
1
40
1
41
1
41
1
41
1
41
1
10
7.3697036737433876
20
-36.657796193297003
30
0
10
7.4278095923519718
20
-39.857131009122384
30
0
10
6.7956274945495654
20
-43.13418715658738
30
0
10
5.8743994586538237
20
-46.531885371072256
30
0
0
SPLINE
5
110
100
AcDbEntity
8
0
100
AcDbSpline
70
4
71
3
72
8
73
4
74
0
42
0.000000001
43
0.0000000001
44
0.0000000001
40
0
40
0
40
0
40
0
40
1
40
1
40
1
40
1
41
1
41
1
41
1
41
1
10
5.8743994586538237
20
-46.531885371072256
30
0
10
5.4204010440851933
20
-48.206374060936277
30
0
10
4.7472897269326459
20
-50.243368961802055
30
0
10
4.6858233532647828
20
-52.656790312173094
30
0
0
SPLINE
5
111
100
AcDbEntity
8
0
100
AcDbSpline
70
4
71
3
72
8
73
4
74
0
42
0.000000001
43
0.0000000001
44
0.0000000001
40
0
40
0
40
0
40
0
40
1
40
1
40
1
40
1
41
1
41
1
41
1
41
1
10
4.6858233532647828
20
-52.656790312173094
30
0
10
4.6542172905693553
20
-53.899751608459987
30
0
10
4.8030180533822939
20
-55.185633640128344
30
0
10
5.2226022255402196
20
-56.443095184854826
30
0
0
SPLINE
5
112
100
AcDbEntity
8
0
100
AcDbSpline
70
4
71
3
72
8
73
4
74
0
42
0.000000001
43
0.0000000001
44
0.0000000001
40
0
40
0
40
0
40
0
40
1
40
1
40
1
40
1
41
1
41
1
41
1
41
1
10
5.2226022255402196
20
-56.443095184854826
30
0
10
5.6488792260195577
20
-57.720277067458959
30
0
10
6.3724628932546592
20
-58.992818870562324
30
0
10
7.5230630482941248
20
-60.080917513508496
30
0
0
SPLINE
5
113
100
AcDbEntity
8
0
100
AcDbSpline
70
4
71
3
72
8
73
4
74
0
42
0.000000001
43
0.0000000001
44
0.0000000001
40
0
40
0
40
0
40
0
40
1
40
1
40
1
40
1
41
1
41
1
41
1
41
1
10
7.5230630482941248
20
-60.080917513508496
30
0
10
9.2593512056500789
20
-61.72292564686596
30
0
10
11.266343207259091
20
-62.342956270164969
30
0
10
12.775781926915551
20
-62.790723941995978
30
0
0
SPLINE
5
114
100
AcDbEntity
8
0
100
AcDbSpline
70
4
71
3
72
8
73
4
74
0
42
0.000000001
43
0.0000000001
44
0.0000000001
40
0
40
0
40
0
40
0
40
1
40
1
40
1
40
1
41
1
41
1
41
1
41
1
10
12.775781926915551
20
-62.790723941995978
30
0
10
26.543074873335527
20
-66.876893952417944
30
0
10
40.665354497863042
20
-65.410048820216147
30
0
10
53.762320905348126
20
-66.057339910582456
30
0
0
SPLINE
5
115
100
AcDbEntity
8
0
100
AcDbSpline
70
4
71
3
72
8
73
4
74
0
42
0.000000001
43
0.0000000001
44
0.0000000001
40
0
40
0
40
0
40
0
40
1
40
1
40
1
40
1
41
1
41
1
41
1
41
1
10
53.762320905348126
20
-66.057339910582456
30
0
10
54.882503793771626
20
-66.114180884467416
30
0
10
56.181258830289515
20
-66.209302514235503
30
0
10
57.634763290317196
20
-66.095620566464362
30
0
0
SPLINE
5
116
100
AcDbEntity
8
0
100
AcDbSpline
70
4
71
3
72
8
73
4
74
0
42
0.000000001
43
0.0000000001
44
0.0000000001
40
0
40
0
40
0
40
0
40
1
40
1
40
1
40
1
41
1
41
1
41
1
41
1
10
57.634763290317196
20
-66.095620566464362
30
0
10
59.049187249307302
20
-65.98135860875712
30
0
10
60.735386841141775
20
-65.70817392814449
30
0
10
62.389048990675278
20
-64.795818296293703
30
0
0
SPLINE
5
117
100
AcDbEntity
8
0
100
AcDbSpline
70
4
71
3
72
8
73
4
74
0
42
0.000000001
43
0.0000000001
44
0.0000000001
40
0
40
0
40
0
40
0
40
1
40
1
40
1
40
1
41
1
41
1
41
1
41
1
10
62.389048990675278
20
-64.795818296293703
30
0
10
64.178140287277458
20
-63.809221392428263
30
0
10
65.425290341227637
20
-62.360936578230728
30
0
10
66.261491375644354
20
-60.823910243578965
30
0
0
SPLINE
5
118
100
AcDbEntity
8
0
100
AcDbSpline
70
4
71
3
72
8
73
4
74
0
42
0.000000001
43
0.0000000001
44
0.0000000001
40
0
40
0
40
0
40
0
40
1
40
1
40
1
40
1
41
1
41
1
41
1
41
1
10
66.261491375644354
20
-60.823910243578965
30
0
10
67.11010456440259
20
-59.263683511423373
30
0
10
67.503895605875698
20
-57.633855586756312
30
0
10
67.641758508697649
20
-56.07246883472493
30
0
0
SPLINE
5
119
100
AcDbEntity
8
0
100
AcDbSpline
70
4
71
3
72
8
73
4
74
0
42
0.000000001
43
0.0000000001
44
0.0000000001
40
0
40
0
40
0
40
0
40
1
40
1
40
1
40
1
41
1
41
1
41
1
41
1
10
67.641758508697649
20
-56.07246883472493
30
0
10
67.914994394993982
20
-52.978695827543746
30
0
10
67.228656551382471
20
-50.230028733237056
30
0
10
66.721574179596075
20
-47.868808277250238
30
0
0
SPLINE
5
120
100
AcDbEntity
8
0
100
AcDbSpline
70
4
71
3
72
8
73
4
74
0
42
0.000000001
43
0.0000000001
44
0.0000000001
40
0
40
0
40
0
40
0
40
1
40
1
40
1
40
1
41
1
41
1
41
1
41
1
10
66.721574179596075
20
-47.868808277250238
30
0
10
65.502552725793919
20
-42.191671007980418
30
0
10
64.7931222843238
20
-36.606755318788593
30
0
10
66.299832389356922
20
-31.869814158374147
30
0
0
SPLINE
5
121
100
AcDbEntity
8
0
100
AcDbSpline
70
4
71
3
72
8
73
4
74
0
42
0.000000001
43
0.0000000001
44
0.0000000001
40
0
40
0
40
0
40
0
40
1
40
1
40
1
40
1
41
1
41
1
41
1
41
1
10
66.299832389356922
20
-31.869814158374147
30
0
10
67.120747565523487
20
-29.288769936035891
30
0
10
68.779529962737826
20
-26.619564203180694
30
0
10
70.287297815463688
20
-23.443429784859134
30
0
0
SPLINE
5
122
100
AcDbEntity
8
0
100
AcDbSpline
70
4
71
3
72
8
73
4
74
0
42
0.000000001
43
0.0000000001
44
0.0000000001
40
0
40
0
40
0
40
0
40
1
40
1
40
1
40
1
41
1
41
1
41
1
41
1
10
70.287297815463688
20
-23.443429784859134
30
0
10
71.807318692347209
20
-20.241194919346075
30
0
10
73.176755612298578
20
-16.380648774652101
30
0
10
72.549417624505026
20
-12.158756438830959
30
0
0
SPLINE
5
123
100
AcDbEntity
8
0
100
AcDbSpline
70
4
71
3
72
8
73
4
74
0
42
0.000000001
43
0.0000000001
44
0.0000000001
40
0
40
0
40
0
40
0
40
1
40
1
40
1
40
1
41
1
41
1
41
1
41
1
10
72.549417624505026
20
-12.158756438830959
30
0
10
72.184859733867924
20
-9.7053144027649338
30
0
10
71.150597784132813
20
-7.4206552585419292
30
0
10
69.597159568637522
20
-5.5141625936360592
30
0
0
SPLINE
5
124
100
AcDbEntity
8
0
100
AcDbSpline
70
4
71
3
72
8
73
4
74
0
42
0.000000001
43
0.0000000001
44
0.0000000001
40
0
40
0
40
0
40
0
40
1
40
1
40
1
40
1
41
1
41
1
41
1
41
1
10
69.597159568637522
20
-5.5141625936360592
30
0
10
68.05718189457744
20
-3.6233301970467746
30
0
10
66.017741376358416
20
-2.1112442897119199
30
0
10
63.654302443189934
20
-1.171048180855337
30
0
0
SPLINE
5
125
100
AcDbEntity
8
0
100
AcDbSpline
70
4
71
3
72
8
73
4
74
0
42
0.000000001
43
0.0000000001
44
0.0000000001
40
0
40
0
40
0
40
0
40
1
40
1
40
1
40
1
41
1
41
1
41
1
41
1
10
63.654302443189934
20
-1.171048180855337
30
0
10
60.290823910416485
20
0.16703474519723238
30
0
10
56.762168246790516
20
0.21459556008067204
30
0
10
53.570615836785308
20
-0.31785356263989695
30
0
0
SPLINE
5
126
100
AcDbEntity
8
0
100
AcDbSpline
70
4
71
3
72
8
73
4
74
0
42
0.000000001
43
0.0000000001
44
0.0000000001
40
0
40
0
40
0
40
0
40
1
40
1
40
1
40
1
41
1
41
1
41
1
41
1
10
105.17936544201663
20
-0.3166931117817835
30
0
10
108.36200656172538
20
-0.84914223450235249
30
0
10
111.20088904188813
20
-1.9569612153273686
30
0
10
113.80609352734379
20
-2.9893789042631536
30
0
0
SPLINE
5
127
100
AcDbEntity
8
0
100
AcDbSpline
70
4
71
3
72
8
73
4
74
0
42
0.000000001
43
0.0000000001
44
0.0000000001
40
0
40
0
40
0
40
0
40
1
40
1
40
1
40
1
41
1
41
1
41
1
41
1
10
113.80609352734379
20
-2.9893789042631536
30
0
10
118.44106903219884
20
-4.8274303965309393
30
0
10
122.68035329397344
20
-6.4978590168302919
30
0
10
126.5353100799154
20
-6.2931155088569435
30
0
0
SPLINE
5
128
100
AcDbEntity
8
0
100
AcDbSpline
70
4
71
3
72
8
73
4
74
0
42
0.000000001
43
0.0000000001
44
0.0000000001
40
0
40
0
40
0
40
0
40
1
40
1
40
1
40
1
41
1
41
1
41
1
41
1
10
126.5353100799154
20
-6.2931155088569435
30
0
10
129.03917672004579
20
-6.1602932331454499
30
0
10
131.79404782372657
20
-5.2305373031649847
30
0
10
134.81696904182945
20
-4.1401186204696412
30
0
0
SPLINE
5
129
100
AcDbEntity
8
0
100
AcDbSpline
70
4
71
3
72
8
73
4
74
0
42
0.000000001
43
0.0000000001
44
0.0000000001
40
0
40
0
40
0
40
0
40
1
40
1
40
1
40
1
41
1
41
1
41
1
41
1
10
134.81696904182945
20
-4.1401186204696412
30
0
10
137.85955219823882
20
-3.0433198284604455
30
0
10
141.49197946294328
20
-1.7324973694739663
30
0
10
145.66747592248538
20
-2.1727249121153331
30
0
0
SPLINE
5
130
100
AcDbEntity
8
0
100
AcDbSpline
70
4
71
3
72
8
73
4
74
0
42
0.000000001
43
0.0000000001
44
0.0000000001
40
0
40
0
40
0
40
0
40
1
40
1
40
1
40
1
41
1
41
1
41
1
41
1
10
145.66747592248538
20
-2.1727249121153331
30
0
10
148.54621115310746
20
-2.4766501194202331
30
0
10
151.28138755638508
20
-3.6018693983725152
30
0
10
153.48904271984867
20
-5.4393408807030061
30
0
0
SPLINE
5
131
100
AcDbEntity
8
0
100
AcDbSpline
70
4
71
3
72
8
73
4
74
0
42
0.000000001
43
0.0000000001
44
0.0000000001
40
0
40
0
40
0
40
0
40
1
40
1
40
1
40
1
41
1
41
1
41
1
41
1
10
153.48904271984867
20
-5.4393408807030061
30
0
10
155.68068189833613
20
-7.26173210465541
30
0
10
157.21874064959076
20
-9.628752660018792
30
0
10
158.05162335164391
20
-12.232417269924785
30
0
0
SPLINE
5
132
100
AcDbEntity
8
0
100
AcDbSpline
70
4
71
3
72
8
73
4
74
0
42
0.000000001
43
0.0000000001
44
0.0000000001
40
0
40
0
40
0
40
0
40
1
40
1
40
1
40
1
41
1
41
1
41
1
41
1
10
158.05162335164391
20
-12.232417269924785
30
0
10
159.6004982751019
20
-17.073760219107633
30
0
10
158.5377169202084
20
-22.42029182394376
30
0
10
155.21438833691411
20
-26.338258952460002
30
0
0
SPLINE
5
133
100
AcDbEntity
8
0
100
AcDbSpline
70
4
71
3
72
8
73
4
74
0
42
0.000000001
43
0.0000000001
44
0.0000000001
40
0
40
0
40
0
40
0
40
1
40
1
40
1
40
1
41
1
41
1
41
1
41
1
10
155.21438833691411
20
-26.338258952460002
30
0
10
154.67108980739971
20
-26.978589923575154
30
0
10
154.20494133526296
20
-27.524379274860724
30
0
10
153.8724622175734
20
-28.008687572760557
30
0
0
SPLINE
5
134
100
AcDbEntity
8
0
100
AcDbSpline
70
4
71
3
72
8
73
4
74
0
42
0.000000001
43
0.0000000001
44
0.0000000001
40
0
40
0
40
0
40
0
40
1
40
1
40
1
40
1
41
1
41
1
41
1
41
1
10
153.8724622175734
20
-28.008687572760557
30
0
10
152.24174757661319
20
-30.383828267249676
30
0
10
151.43774700293167
20
-33.492681532808945
30
0
10
151.38029632625663
20
-36.657795762314677
30
0
0
SPLINE
5
135
100
AcDbEntity
8
0
100
AcDbSpline
70
4
71
3
72
8
73
4
74
0
42
0.000000001
43
0.0000000001
44
0.0000000001
40
0
40
0
40
0
40
0
40
1
40
1
40
1
40
1
41
1
41
1
41
1
41
1
10
151.38029632625663
20
-36.657795762314677
30
0
10
151.32219040764807
20
-39.857130578140058
30
0
10
151.95437250545046
20
-43.134186725605055
30
0
10
152.87560054134619
20
-46.531884940089938
30
0
0
SPLINE
5
136
100
AcDbEntity
8
0
100
AcDbSpline
70
4
71
3
72
8
73
4
74
0
42
0.000000001
43
0.0000000001
44
0.0000000001
40
0
40
0
40
0
40
0
40
1
40
1
40
1
40
1
41
1
41
1
41
1
41
1
10
152.87560054134619
20
-46.531884940089938
30
0
10
153.32959895591483
20
-48.206373629953958
30
0
10
154.00271027306741
20
-50.243368530819737
30
0
10
154.06417664673523
20
-52.656789881190768
30
0
0
SPLINE
5
137
100
AcDbEntity
8
0
100
AcDbSpline
70
4
71
3
72
8
73
4
74
0
42
0.000000001
43
0.0000000001
44
0.0000000001
40
0
40
0
40
0
40
0
40
1
40
1
40
1
40
1
41
1
41
1
41
1
41
1
10
154.06417664673523
20
-52.656789881190768
30
0
10
154.09578270943069
20
-53.899751177477661
30
0
10
153.94698194661774
20
-55.185633209146026
30
0
10
153.52739777445981
20
-56.443094753872515
30
0
0
SPLINE
5
138
100
AcDbEntity
8
0
100
AcDbSpline
70
4
71
3
72
8
73
4
74
0
42
0.000000001
43
0.0000000001
44
0.0000000001
40
0
40
0
40
0
40
0
40
1
40
1
40
1
40
1
41
1
41
1
41
1
41
1
10
153.52739777445981
20
-56.443094753872515
30
0
10
153.10112077398048
20
-57.720276636476633
30
0
10
152.37753710674536
20
-58.992818439580006
30
0
10
151.22693695170591
20
-60.08091708252617
30
0
0
SPLINE
5
139
100
AcDbEntity
8
0
100
AcDbSpline
70
4
71
3
72
8
73
4
74
0
42
0.000000001
43
0.0000000001
44
0.0000000001
40
0
40
0
40
0
40
0
40
1
40
1
40
1
40
1
41
1
41
1
41
1
41
1
10
151.22693695170591
20
-60.08091708252617
30
0
10
149.49064879434994
20
-61.722925215883642
30
0
10
147.48365679274093
20
-62.342955839182643
30
0
10
145.97421807308447
20
-62.79072351101366
30
0
0
SPLINE
5
140
100
AcDbEntity
8
0
100
AcDbSpline
70
4
71
3
72
8
73
4
74
0
42
0.000000001
43
0.0000000001
44
0.0000000001
40
0
40
0
40
0
40
0
40
1
40
1
40
1
40
1
41
1
41
1
41
1
41
1
10
145.97421807308447
20
-62.79072351101366
30
0
10
132.20692512666452
20
-66.876893521435619
30
0
10
118.08464550213698
20
-65.410048389233822
30
0
10
104.9876790946519
20
-66.057339479600131
30
0
0
SPLINE
5
141
100
AcDbEntity
8
0
100
AcDbSpline
70
4
71
3
72
8
73
4
74
0
42
0.000000001
43
0.0000000001
44
0.0000000001
40
0
40
0
40
0
40
0
40
1
40
1
40
1
40
1
41
1
41
1
41
1
41
1
10
104.9876790946519
20
-66.057339479600131
30
0
10
103.8674962062284
20
-66.114180453485091
30
0
10
102.56874116971051
20
-66.209302083253178
30
0
10
101.11523670968283
20
-66.095620135482037
30
0
0
SPLINE
5
142
100
AcDbEntity
8
0
100
AcDbSpline
70
4
71
3
72
8
73
4
74
0
42
0.000000001
43
0.0000000001
44
0.0000000001
40
0
40
0
40
0
40
0
40
1
40
1
40
1
40
1
41
1
41
1
41
1
41
1
10
101.11523670968283
20
-66.095620135482037
30
0
10
99.700812750692734
20
-65.981358177774808
30
0
10
98.014613158858253
20
-65.708173497162164
30
0
10
96.360951009324765
20
-64.795817865311378
30
0
0
SPLINE
5
143
100
AcDbEntity
8
0
100
AcDbSpline
70
4
71
3
72
8
73
4
74
0
42
0.000000001
43
0.0000000001
44
0.0000000001
40
0
40
0
40
0
40
0
40
1
40
1
40
1
40
1
41
1
41
1
41
1
41
1
10
96.360951009324765
20
-64.795817865311378
30
0
10
94.571859712722585
20
-63.809220961445945
30
0
10
93.324709658772406
20
-62.36093614724841
30
0
10
92.488508624355688
20
-60.823909812596639
30
0
0
SPLINE
5
144
100
AcDbEntity
8
0
100
AcDbSpline
70
4
71
3
72
8
73
4
74
0
42
0.000000001
43
0.0000000001
44
0.0000000001
40
0
40
0
40
0
40
0
40
1
40
1
40
1
40
1
41
1
41
1
41
1
41
1
10
92.488508624355688
20
-60.823909812596639
30
0
10
91.639895435597452
20
-59.263683080441048
30
0
10
91.24610439412433
20
-57.633855155774
30
0
10
91.108241491302394
20
-56.072468403742604
30
0
0
SPLINE
5
145
100
AcDbEntity
8
0
100
AcDbSpline
70
4
71
3
72
8
73
4
74
0
42
0.000000001
43
0.0000000001
44
0.0000000001
40
0
40
0
40
0
40
0
40
1
40
1
40
1
40
1
41
1
41
1
41
1
41
1
10
91.108241491302394
20
-56.072468403742604
30
0
10
90.835005605006046
20
-52.978695396561434
30
0
10
91.521343448617571
20
-50.230028302254738
30
0
10
92.028425820403967
20
-47.868807846267913
30
0
0
SPLINE
5
146
100
AcDbEntity
8
0
100
AcDbSpline
70
4
71
3
72
8
73
4
74
0
42
0.000000001
43
0.0000000001
44
0.0000000001
40
0
40
0
40
0
40
0
40
1
40
1
40
1
40
1
41
1
41
1
41
1
41
1
10
92.028425820403967
20
-47.868807846267913
30
0
10
93.24744727420611
20
-42.191670576998092
30
0
10
93.956877715676228
20
-36.606754887806268
30
0
10
92.45016761064312
20
-31.869813727391826
30
0
0
SPLINE
5
147
100
AcDbEntity
8
0
100
AcDbSpline
70
4
71
3
72
8
73
4
74
0
42
0.000000001
43
0.0000000001
44
0.0000000001
40
0
40
0
40
0
40
0
40
1
40
1
40
1
40
1
41
1
41
1
41
1
41
1
10
92.45016761064312
20
-31.869813727391826
30
0
10
91.629252434476541
20
-29.288769505053569
30
0
10
89.970470037262217
20
-26.619563772198372
30
0
10
88.46270218453634
20
-23.443429353876812
30
0
0
SPLINE
5
148
100
AcDbEntity
8
0
100
AcDbSpline
70
4
71
3
72
8
73
4
74
0
42
0.000000001
43
0.0000000001
44
0.0000000001
40
0
40
0
40
0
40
0
40
1
40
1
40
1
40
1
41
1
41
1
41
1
41
1
10
88.46270218453634
20
-23.443429353876812
30
0
10
86.942681307652819
20
-20.241194488363753
30
0
10
85.573244387701465
20
-16.38064834366978
30
0
10
86.200582375495003
20
-12.158756007848641
30
0
0
SPLINE
5
149
100
AcDbEntity
8
0
100
AcDbSpline
70
4
71
3
72
8
73
4
74
0
42
0.000000001
43
0.0000000001
44
0.0000000001
40
0
40
0
40
0
40
0
40
1
40
1
40
1
40
1
41
1
41
1
41
1
41
1
10
86.200582375495003
20
-12.158756007848641
30
0
10
86.565140266132104
20
-9.7053139717826138
30
0
10
87.599402215867229
20
-7.4206548275596083
30
0
10
89.15284043136252
20
-5.5141621626537383
30
0
0
SPLINE
5
150
100
AcDbEntity
8
0
100
AcDbSpline
70
4
71
3
72
8
73
4
74
0
42
0.000000001
43
0.0000000001
44
0.0000000001
40
0
40
0
40
0
40
0
40
1
40
1
40
1
40
1
41
1
41
1
41
1
41
1
10
89.15284043136252
20
-5.5141621626537383
30
0
10
90.692818105422589
20
-3.6233297660644541
30
0
10
92.732258623641627
20
-2.1112438587295994
30
0
10
95.095697556810109
20
-1.1710477498730163
30
0
0
SPLINE
5
151
100
AcDbEntity
8
0
100
AcDbSpline
70
4
71
3
72
8
73
4
74
0
42
0.000000001
43
0.0000000001
44
0.0000000001
40
0
40
0
40
0
40
0
40
1
40
1
40
1
40
1
41
1
41
1
41
1
41
1
10
95.095697556810109
20
-1.1710477498730163
30
0
10
98.459176089583536
20
0.16703517617955302
30
0
10
101.98783175320953
20
0.21459599106299271
30
0
10
105.17938416321472
20
-0.31785313165757623
30
0
0
SPLINE
5
152
100
AcDbEntity
8
0
100
AcDbSpline
70
4
71
3
72
8
73
4
74
0
42
0.000000001
43
0.0000000001
44
0.0000000001
40
0
40
0
40
0
40
0
40
1
40
1
40
1
40
1
41
1
41
1
41
1
41
1
10
3.7105253374648335
20
-13.508538365421339
30
0
10
4.3594956696650611
20
-11.479663603681296
30
0
10
5.5908824748134878
20
-9.623631803347747
30
0
10
7.2544434578433217
20
-8.2391480822863272
30
0
0
SPLINE
5
153
100
AcDbEntity
8
0
100
AcDbSpline
70
4
71
3
72
8
73
4
74
0
42
0.000000001
43
0.0000000001
44
0.0000000001
40
0
40
0
40
0
40
0
40
1
40
1
40
1
40
1
41
1
41
1
41
1
41
1
10
7.2544434578433217
20
-8.2391480822863272
30
0
10
8.9180184817717372
20
-6.8552443711634048
30
0
10
11.011581983703177
20
-5.952168898312939
30
0
10
13.192203737107688
20
-5.7224849630214782
30
0
0
SPLINE
5
154
100
AcDbEntity
8
0
100
AcDbSpline
70
4
71
3
72
8
73
4
74
0
42
0.000000001
43
0.0000000001
44
0.0000000001
40
0
40
0
40
0
40
0
40
1
40
1
40
1
40
1
41
1
41
1
41
1
41
1
10
13.192203737107688
20
-5.7224849630214782
30
0
10
16.357948975529514
20
-5.3878192290243128
30
0
10
19.486930461178865
20
-6.4428573055266272
30
0
10
22.471075397713332
20
-7.5187757397823818
30
0
0
SPLINE
5
155
100
AcDbEntity
8
0
100
AcDbSpline
70
4
71
3
72
8
73
4
74
0
42
0.000000001
43
0.0000000001
44
0.0000000001
40
0
40
0
40
0
40
0
40
1
40
1
40
1
40
1
41
1
41
1
41
1
41
1
10
22.471075397713332
20
-7.5187757397823818
30
0
10
25.48309151792191
20
-8.6039743330396661
30
0
10
28.540572067720809
20
-9.7442738703700353
30
0
10
31.749947058318973
20
-9.9142167820876477
30
0
0
SPLINE
5
156
100
AcDbEntity
8
0
100
AcDbSpline
70
4
71
3
72
8
73
4
74
0
42
0.000000001
43
0.0000000001
44
0.0000000001
40
0
40
0
40
0
40
0
40
1
40
1
40
1
40
1
41
1
41
1
41
1
41
1
10
31.749947058318973
20
-9.9142167820876477
30
0
10
36.687995358945173
20
-10.176381273884461
30
0
10
41.401211430967322
20
-8.1353263034552121
30
0
10
45.977542782768381
20
-6.3210552186297484
30
0
0
SPLINE
5
157
100
AcDbEntity
8
0
100
AcDbSpline
70
4
71
3
72
8
73
4
74
0
42
0.000000001
43
0.0000000001
44
0.0000000001
40
0
40
0
40
0
40
0
40
1
40
1
40
1
40
1
41
1
41
1
41
1
41
1
10
45.977542782768381
20
-6.3210552186297484
30
0
10
48.541972498758206
20
-5.3042977980093458
30
0
10
51.151988332126024
20
-4.3391612618358515
30
0
10
53.882971187028858
20
-3.8832734508791029
30
0
0
SPLINE
5
158
100
AcDbEntity
8
0
100
AcDbSpline
70
4
71
3
72
8
73
4
74
0
42
0.000000001
43
0.0000000001
44
0.0000000001
40
0
40
0
40
0
40
0
40
1
40
1
40
1
40
1
41
1
41
1
41
1
41
1
10
53.882971187028858
20
-3.8832734508791029
30
0
10
56.613954041931684
20
-3.4273856399211509
30
0
10
59.497542743161645
20
-3.5051069715607648
30
0
10
62.060914711458736
20
-4.5259244617446379
30
0
0
SPLINE
5
159
100
AcDbEntity
8
0
100
AcDbSpline
70
4
71
3
72
8
73
4
74
0
42
0.000000001
43
0.0000000001
44
0.0000000001
40
0
40
0
40
0
40
0
40
1
40
1
40
1
40
1
41
1
41
1
41
1
41
1
10
62.060914711458736
20
-4.5259244617446379
30
0
10
63.837565771922236
20
-5.2329565756835841
30
0
10
65.424318359439752
20
-6.3848563117658657
30
0
10
66.613853926231542
20
-7.8447413247153115
30
0
0
SPLINE
5
160
100
AcDbEntity
8
0
100
AcDbSpline
70
4
71
3
72
8
73
4
74
0
42
0.000000001
43
0.0000000001
44
0.0000000001
40
0
40
0
40
0
40
0
40
1
40
1
40
1
40
1
41
1
41
1
41
1
41
1
10
66.613853926231542
20
-7.8447413247153115
30
0
10
67.803389493023303
20
-9.3046263376659617
30
0
10
68.591935717671774
20
-11.069596577796103
30
0
10
68.865424340142482
20
-12.910548119751565
30
0
0
SPLINE
5
161
100
AcDbEntity
8
0
100
AcDbSpline
70
4
71
3
72
8
73
4
74
0
42
0.000000001
43
0.0000000001
44
0.0000000001
40
0
40
0
40
0
40
0
40
1
40
1
40
1
40
1
41
1
41
1
41
1
41
1
10
68.865424340142482
20
-12.910548119751565
30
0
10
69.342665122154543
20
-16.122643154203448
30
0
10
68.26533505618616
20
-19.363738685536916
30
0
10
66.865738286092707
20
-22.311929198378895
30
0
0
SPLINE
5
162
100
AcDbEntity
8
0
100
AcDbSpline
70
4
71
3
72
8
73
4
74
0
42
0.000000001
43
0.0000000001
44
0.0000000001
40
0
40
0
40
0
40
0
40
1
40
1
40
1
40
1
41
1
41
1
41
1
41
1
10
66.865738286092707
20
-22.311929198378895
30
0
10
65.466132155400217
20
-25.260699721159376
30
0
10
63.723666002670655
20
-28.076067958289862
30
0
10
62.737227353486702
20
-31.177381094660689
30
0
0
SPLINE
5
163
100
AcDbEntity
8
0
100
AcDbSpline
70
4
71
3
72
8
73
4
74
0
42
0.000000001
43
0.0000000001
44
0.0000000001
40
0
40
0
40
0
40
0
40
1
40
1
40
1
40
1
41
1
41
1
41
1
41
1
10
62.737227353486702
20
-31.177381094660689
30
0
10
60.929939052329516
20
-36.859738453369772
30
0
10
61.806381302066136
20
-42.994503563409424
30
0
10
63.056283372137266
20
-48.815483297206569
30
0
0
SPLINE
5
164
100
AcDbEntity
8
0
100
AcDbSpline
70
4
71
3
72
8
73
4
74
0
42
0.000000001
43
0.0000000001
44
0.0000000001
40
0
40
0
40
0
40
0
40
1
40
1
40
1
40
1
41
1
41
1
41
1
41
1
10
63.056283372137266
20
-48.815483297206569
30
0
10
63.567699701284248
20
-51.19700410100954
30
0
10
64.142506007204034
20
-53.612745491130951
30
0
10
63.928429106909526
20
-56.036607020379293
30
0
0
SPLINE
5
165
100
AcDbEntity
8
0
100
AcDbSpline
70
4
71
3
72
8
73
4
74
0
42
0.000000001
43
0.0000000001
44
0.0000000001
40
0
40
0
40
0
40
0
40
1
40
1
40
1
40
1
41
1
41
1
41
1
41
1
10
63.928429106909526
20
-56.036607020379293
30
0
10
63.821446820356556
20
-57.249407799910017
30
0
10
63.512181988313252
20
-58.452928420439214
30
0
10
62.926854369060209
20
-59.528846854694962
30
0
0
SPLINE
5
166
100
AcDbEntity
8
0
100
AcDbSpline
70
4
71
3
72
8
73
4
74
0
42
0.000000001
43
0.0000000001
44
0.0000000001
40
0
40
0
40
0
40
0
40
1
40
1
40
1
40
1
41
1
41
1
41
1
41
1
10
62.926854369060209
20
-59.528846854694962
30
0
10
62.341526749807187
20
-60.604765288950723
30
0
10
61.471028480467886
20
-61.549601477308073
30
0
10
60.379086519381026
20
-62.151071782604021
30
0
0
SPLINE
5
167
100
AcDbEntity
8
0
100
AcDbSpline
70
4
71
3
72
8
73
4
74
0
42
0.000000001
43
0.0000000001
44
0.0000000001
40
0
40
0
40
0
40
0
40
1
40
1
40
1
40
1
41
1
41
1
41
1
41
1
10
60.379086519381026
20
-62.151071782604021
30
0
10
59.384897294182892
20
-62.698601163701468
30
0
10
58.240395569425104
20
-62.949165456747579
30
0
10
57.099993787051616
20
-63.035006927512924
30
0
0
SPLINE
5
168
100
AcDbEntity
8
0
100
AcDbSpline
70
4
71
3
72
8
73
4
74
0
42
0.000000001
43
0.0000000001
44
0.0000000001
40
0
40
0
40
0
40
0
40
1
40
1
40
1
40
1
41
1
41
1
41
1
41
1
10
57.099993787051616
20
-63.035006927512924
30
0
10
55.959592004678129
20
-63.130128557279804
30
0
10
54.813667468864594
20
-63.049507175952513
30
0
10
53.671309321289456
20
-62.996726271631012
30
0
0
SPLINE
5
169
100
AcDbEntity
8
0
100
AcDbSpline
70
4
71
3
72
8
73
4
74
0
42
0.000000001
43
0.0000000001
44
0.0000000001
40
0
40
0
40
0
40
0
40
1
40
1
40
1
40
1
41
1
41
1
41
1
41
1
10
53.671309321289456
20
-62.996726271631012
30
0
10
40.212845939056933
20
-62.33145487319895
30
0
10
26.39537082112497
20
-63.686358087441491
30
0
10
13.511231673961122
20
-59.862352568817542
30
0
0
SPLINE
5
170
100
AcDbEntity
8
0
100
AcDbSpline
70
4
71
3
72
8
73
4
74
0
42
0.000000001
43
0.0000000001
44
0.0000000001
40
0
40
0
40
0
40
0
40
1
40
1
40
1
40
1
41
1
41
1
41
1
41
1
10
13.511231673961122
20
-59.862352568817542
30
0
10
12.125703884241211
20
-59.451705532992641
30
0
10
10.710769772602832
20
-58.954057006529013
30
0
10
9.6740974686121124
20
-57.973260202040144
30
0
0
SPLINE
5
171
100
AcDbEntity
8
0
100
AcDbSpline
70
4
71
3
72
8
73
4
74
0
42
0.000000001
43
0.0000000001
44
0.0000000001
40
0
40
0
40
0
40
0
40
1
40
1
40
1
40
1
41
1
41
1
41
1
41
1
10
9.6740974686121124
20
-57.973260202040144
30
0
10
9.0053201088201291
20
-57.340469360113431
30
0
10
8.5277095831455547
20
-56.530775487217959
30
0
10
8.2402596271904081
20
-55.670620749751372
30
0
0
SPLINE
5
172
100
AcDbEntity
8
0
100
AcDbSpline
70
4
71
3
72
8
73
4
74
0
42
0.000000001
43
0.0000000001
44
0.0000000001
40
0
40
0
40
0
40
0
40
1
40
1
40
1
40
1
41
1
41
1
41
1
41
1
10
8.2402596271904081
20
-55.670620749751372
30
0
10
7.9528096712352525
20
-54.809886002346289
30
0
10
7.8508493460731144
20
-53.895210330743907
30
0
10
7.8738764197383766
20
-52.991554847957346
30
0
0
SPLINE
5
173
100
AcDbEntity
8
0
100
AcDbSpline
70
4
71
3
72
8
73
4
74
0
42
0.000000001
43
0.0000000001
44
0.0000000001
40
0
40
0
40
0
40
0
40
1
40
1
40
1
40
1
41
1
41
1
41
1
41
1
10
7.8738764197383766
20
-52.991554847957346
30
0
10
7.9200101321608276
20
-51.181923842631456
30
0
10
8.4551368587037761
20
-49.422753701877866
30
0
10
8.9299251637645085
20
-47.671703700250021
30
0
0
SPLINE
5
174
100
AcDbEntity
8
0
100
AcDbSpline
70
4
71
3
72
8
73
4
74
0
42
0.000000001
43
0.0000000001
44
0.0000000001
40
0
40
0
40
0
40
0
40
1
40
1
40
1
40
1
41
1
41
1
41
1
41
1
10
8.9299251637645085
20
-47.671703700250021
30
0
10
9.8899575630258312
20
-44.131323041113617
30
0
10
10.620828456622073
20
-40.498720801898017
30
0
10
10.554396285157708
20
-36.838858095615123
30
0
0
SPLINE
5
175
100
AcDbEntity
8
0
100
AcDbSpline
70
4
71
3
72
8
73
4
74
0
42
0.000000001
43
0.0000000001
44
0.0000000001
40
0
40
0
40
0
40
0
40
1
40
1
40
1
40
1
41
1
41
1
41
1
41
1
10
10.554396285157708
20
-36.838858095615123
30
0
10
10.488043678785266
20
-33.178995389332229
30
0
10
9.5829345944552067
20
-29.468091808540926
30
0
10
7.4899467693654023
20
-26.419559576492802
30
0
0
SPLINE
5
176
100
AcDbEntity
8
0
100
AcDbSpline
70
4
71
3
72
8
73
4
74
0
42
0.000000001
43
0.0000000001
44
0.0000000001
40
0
40
0
40
0
40
0
40
1
40
1
40
1
40
1
41
1
41
1
41
1
41
1
10
7.4899467693654023
20
-26.419559576492802
30
0
10
7.0233677096723284
20
-25.739207919682656
30
0
10
6.4686258478181804
20
-25.123237365947119
30
0
10
5.9337097347538741
20
-24.492186553833491
30
0
0
SPLINE
5
177
100
AcDbEntity
8
0
100
AcDbSpline
70
4
71
3
72
8
73
4
74
0
42
0.000000001
43
0.0000000001
44
0.0000000001
40
0
40
0
40
0
40
0
40
1
40
1
40
1
40
1
41
1
41
1
41
1
41
1
10
5.9337097347538741
20
-24.492186553833491
30
0
10
3.3868498631826198
20
-21.490055116794217
30
0
10
2.5232269538462386
20
-17.225242045589201
30
0
10
3.7105019359672067
20
-13.513758454859397
30
0
0
LINE
5
178
100
AcDbEntity
8
0
100
AcDbLine
10
3.7105019359672067
20
-13.513758454859396
30
0
11
3.7105253374648335
21
-13.508538365421339
31
0
0
SPLINE
5
179
100
AcDbEntity
8
0
100
AcDbSpline
70
4
71
3
72
8
73
4
74
0
42
0.000000001
43
0.0000000001
44
0.0000000001
40
0
40
0
40
0
40
0
40
1
40
1
40
1
40
1
41
1
41
1
41
1
41
1
10
155.03947466253521
20
-13.508537934439017
30
0
10
154.39050433033498
20
-11.479663172698976
30
0
10
153.15911752518656
20
-9.6236313723654252
30
0
10
151.49555654215672
20
-8.2391476513040054
30
0
0
SPLINE
5
180
100
AcDbEntity
8
0
100
AcDbSpline
70
4
71
3
72
8
73
4
74
0
42
0.000000001
43
0.0000000001
44
0.0000000001
40
0
40
0
40
0
40
0
40
1
40
1
40
1
40
1
41
1
41
1
41
1
41
1
10
151.49555654215672
20
-8.2391476513040054
30
0
10
149.8319815182283
20
-6.8552439401810847
30
0
10
147.73841801629686
20
-5.9521684673306199
30
0
10
145.55779626289234
20
-5.7224845320391573
30
0
0
SPLINE
5
181
100
AcDbEntity
8
0
100
AcDbSpline
70
4
71
3
72
8
73
4
74
0
42
0.000000001
43
0.0000000001
44
0.0000000001
40
0
40
0
40
0
40
0
40
1
40
1
40
1
40
1
41
1
41
1
41
1
41
1
10
145.55779626289234
20
-5.7224845320391573
30
0
10
142.39205102447053
20
-5.3878187980419927
30
0
10
139.26306953882118
20
-6.4428568745443062
30
0
10
136.27892460228671
20
-7.5187753088000608
30
0
0
SPLINE
5
182
100
AcDbEntity
8
0
100
AcDbSpline
70
4
71
3
72
8
73
4
74
0
42
0.000000001
43
0.0000000001
44
0.0000000001
40
0
40
0
40
0
40
0
40
1
40
1
40
1
40
1
41
1
41
1
41
1
41
1
10
136.27892460228671
20
-7.5187753088000608
30
0
10
133.26690848207812
20
-8.6039739020573442
30
0
10
130.20942793227923
20
-9.7442734393877135
30
0
10
127.00005294168108
20
-9.9142163511053258
30
0
0
SPLINE
5
183
100
AcDbEntity
8
0
100
AcDbSpline
70
4
71
3
72
8
73
4
74
0
42
0.000000001
43
0.0000000001
44
0.0000000001
40
0
40
0
40
0
40
0
40
1
40
1
40
1
40
1
41
1
41
1
41
1
41
1
10
127.00005294168108
20
-9.9142163511053258
30
0
10
122.06200464105487
20
-10.176380842902141
30
0
10
117.34878856903272
20
-8.1353258724728921
30
0
10
112.77245721723168
20
-6.3210547876474275
30
0
0
SPLINE
5
184
100
AcDbEntity
8
0
100
AcDbSpline
70
4
71
3
72
8
73
4
74
0
42
0.000000001
43
0.0000000001
44
0.0000000001
40
0
40
0
40
0
40
0
40
1
40
1
40
1
40
1
41
1
41
1
41
1
41
1
10
112.77245721723168
20
-6.3210547876474275
30
0
10
110.20802750124184
20
-5.3042973670270239
30
0
10
107.59801166787403
20
-4.3391608308535305
30
0
10
104.8670288129712
20
-3.8832730198967824
30
0
0
SPLINE
5
185
100
AcDbEntity
8
0
100
AcDbSpline
70
4
71
3
72
8
73
4
74
0
42
0.000000001
43
0.0000000001
44
0.0000000001
40
0
40
0
40
0
40
0
40
1
40
1
40
1
40
1
41
1
41
1
41
1
41
1
10
104.8670288129712
20
-3.8832730198967824
30
0
10
102.13604595806835
20
-3.4273852089388308
30
0
10
99.252457256838383
20
-3.5051065405784443
30
0
10
96.689085288541307
20
-4.525924030762317
30
0
0
SPLINE
5
186
100
AcDbEntity
8
0
100
AcDbSpline
70
4
71
3
72
8
73
4
74
0
42
0.000000001
43
0.0000000001
44
0.0000000001
40
0
40
0
40
0
40
0
40
1
40
1
40
1
40
1
41
1
41
1
41
1
41
1
10
96.689085288541307
20
-4.525924030762317
30
0
10
94.912434228077814
20
-5.2329561447012631
30
0
10
93.325681640560276
20
-6.3848558807835438
30
0
10
92.136146073768515
20
-7.8447408937329914
30
0
0
SPLINE
5
187
100
AcDbEntity
8
0
100
AcDbSpline
70
4
71
3
72
8
73
4
74
0
42
0.000000001
43
0.0000000001
44
0.0000000001
40
0
40
0
40
0
40
0
40
1
40
1
40
1
40
1
41
1
41
1
41
1
41
1
10
92.136146073768515
20
-7.8447408937329914
30
0
10
90.946610506976754
20
-9.3046259066836416
30
0
10
90.158064282328283
20
-11.069596146813783
30
0
10
89.88457565985756
20
-12.910547688769245
30
0
0
SPLINE
5
188
100
AcDbEntity
8
0
100
AcDbSpline
70
4
71
3
72
8
73
4
74
0
42
0.000000001
43
0.0000000001
44
0.0000000001
40
0
40
0
40
0
40
0
40
1
40
1
40
1
40
1
41
1
41
1
41
1
41
1
10
89.88457565985756
20
-12.910547688769245
30
0
10
89.4073348778455
20
-16.122642723221126
30
0
10
90.484664943813883
20
-19.363738254554594
30
0
10
91.884261713907321
20
-22.311928767396573
30
0
0
SPLINE
5
189
100
AcDbEntity
8
0
100
AcDbSpline
70
4
71
3
72
8
73
4
74
0
42
0.000000001
43
0.0000000001
44
0.0000000001
40
0
40
0
40
0
40
0
40
1
40
1
40
1
40
1
41
1
41
1
41
1
41
1
10
91.884261713907321
20
-22.311928767396573
30
0
10
93.283867844599826
20
-25.260699290177055
30
0
10
95.026333997329374
20
-28.07606752730754
30
0
10
96.012772646513355
20
-31.177380663678367
30
0
0
SPLINE
5
190
100
AcDbEntity
8
0
100
AcDbSpline
70
4
71
3
72
8
73
4
74
0
42
0.000000001
43
0.0000000001
44
0.0000000001
40
0
40
0
40
0
40
0
40
1
40
1
40
1
40
1
41
1
41
1
41
1
41
1
10
96.012772646513355
20
-31.177380663678367
30
0
10
97.820060947670527
20
-36.859738022387447
30
0
10
96.9436186979339
20
-42.994503132427113
30
0
10
95.693716627862784
20
-48.815482866224251
30
0
0
SPLINE
5
191
100
AcDbEntity
8
0
100
AcDbSpline
70
4
71
3
72
8
73
4
74
0
42
0.000000001
43
0.0000000001
44
0.0000000001
40
0
40
0
40
0
40
0
40
1
40
1
40
1
40
1
41
1
41
1
41
1
41
1
10
95.693716627862784
20
-48.815482866224251
30
0
10
95.182300298715802
20
-51.197003670027215
30
0
10
94.607493992796009
20
-53.612745060148626
30
0
10
94.821570893090524
20
-56.036606589396982
30
0
0
SPLINE
5
192
100
AcDbEntity
8
0
100
AcDbSpline
70
4
71
3
72
8
73
4
74
0
42
0.000000001
43
0.0000000001
44
0.0000000001
40
0
40
0
40
0
40
0
40
1
40
1
40
1
40
1
41
1
41
1
41
1
41
1
10
94.821570893090524
20
-56.036606589396982
30
0
10
94.928553179643487
20
-57.249407368927699
30
0
10
95.237818011686798
20
-58.452927989456889
30
0
10
95.82314563093982
20
-59.52884642371265
30
0
0
SPLINE
5
193
100
AcDbEntity
8
0
100
AcDbSpline
70
4
71
3
72
8
73
4
74
0
42
0.000000001
43
0.0000000001
44
0.0000000001
40
0
40
0
40
0
40
0
40
1
40
1
40
1
40
1
41
1
41
1
41
1
41
1
10
95.82314563093982
20
-59.52884642371265
30
0
10
96.408473250192856
20
-60.604764857968398
30
0
10
97.278971519532149
20
-61.549601046325748
30
0
10
98.370913480619024
20
-62.151071351621695
30
0
0
SPLINE
5
194
100
AcDbEntity
8
0
100
AcDbSpline
70
4
71
3
72
8
73
4
74
0
42
0.000000001
43
0.0000000001
44
0.0000000001
40
0
40
0
40
0
40
0
40
1
40
1
40
1
40
1
41
1
41
1
41
1
41
1
10
98.370913480619024
20
-62.151071351621695
30
0
10
99.365102705817151
20
-62.69860073271915
30
0
10
100.50960443057494
20
-62.949165025765254
30
0
10
101.65000621294843
20
-63.035006496530606
30
0
0
SPLINE
5
195
100
AcDbEntity
8
0
100
AcDbSpline
70
4
71
3
72
8
73
4
74
0
42
0.000000001
43
0.0000000001
44
0.0000000001
40
0
40
0
40
0
40
0
40
1
40
1
40
1
40
1
41
1
41
1
41
1
41
1
10
101.65000621294843
20
-63.035006496530606
30
0
10
102.79040799532191
20
-63.130128126297478
30
0
10
103.93633253113543
20
-63.049506744970188
30
0
10
105.07869067871057
20
-62.996725840648693
30
0
0
SPLINE
5
196
100
AcDbEntity
8
0
100
AcDbSpline
70
4
71
3
72
8
73
4
74
0
42
0.000000001
43
0.0000000001
44
0.0000000001
40
0
40
0
40
0
40
0
40
1
40
1
40
1
40
1
41
1
41
1
41
1
41
1
10
105.07869067871057
20
-62.996725840648693
30
0
10
118.53715406094311
20
-62.331454442216632
30
0
10
132.35462917887506
20
-63.686357656459165
30
0
10
145.23876832603892
20
-59.862352137835224
30
0
0
SPLINE
5
197
100
AcDbEntity
8
0
100
AcDbSpline
70
4
71
3
72
8
73
4
74
0
42
0.000000001
43
0.0000000001
44
0.0000000001
40
0
40
0
40
0
40
0
40
1
40
1
40
1
40
1
41
1
41
1
41
1
41
1
10
145.23876832603892
20
-59.862352137835224
30
0
10
146.62429611575882
20
-59.451705102010322
30
0
10
148.03923022739721
20
-58.954056575546694
30
0
10
149.07590253138795
20
-57.973259771057819
30
0
0
SPLINE
5
198
100
AcDbEntity
8
0
100
AcDbSpline
70
4
71
3
72
8
73
4
74
0
42
0.000000001
43
0.0000000001
44
0.0000000001
40
0
40
0
40
0
40
0
40
1
40
1
40
1
40
1
41
1
41
1
41
1
41
1
10
149.07590253138795
20
-57.973259771057819
30
0
10
149.74467989117991
20
-57.340468929131106
30
0
10
150.22229041685449
20
-56.53077505623564
30
0
10
150.50974037280963
20
-55.670620318769053
30
0
0
SPLINE
5
199
100
AcDbEntity
8
0
100
AcDbSpline
70
4
71
3
72
8
73
4
74
0
42
0.000000001
43
0.0000000001
44
0.0000000001
40
0
40
0
40
0
40
0
40
1
40
1
40
1
40
1
41
1
41
1
41
1
41
1
10
150.50974037280963
20
-55.670620318769053
30
0
10
150.7971903287648
20
-54.809885571363964
30
0
10
150.89915065392694
20
-53.895209899761589
30
0
10
150.87612358026166
20
-52.991554416975035
30
0
0
SPLINE
5
200
100
AcDbEntity
8
0
100
AcDbSpline
70
4
71
3
72
8
73
4
74
0
42
0.000000001
43
0.0000000001
44
0.0000000001
40
0
40
0
40
0
40
0
40
1
40
1
40
1
40
1
41
1
41
1
41
1
41
1
10
150.87612358026166
20
-52.991554416975035
30
0
10
150.8299898678392
20
-51.18192341164913
30
0
10
150.29486314129628
20
-49.422753270895548
30
0
10
149.82007483623553
20
-47.671703269267702
30
0
0
SPLINE
5
201
100
AcDbEntity
8
0
100
AcDbSpline
70
4
71
3
72
8
73
4
74
0
42
0.000000001
43
0.0000000001
44
0.0000000001
40
0
40
0
40
0
40
0
40
1
40
1
40
1
40
1
41
1
41
1
41
1
41
1
10
149.82007483623553
20
-47.671703269267702
30
0
10
148.8600424369742
20
-44.131322610131306
30
0
10
148.12917154337796
20
-40.498720370915706
30
0
10
148.19560371484235
20
-36.838857664632805
30
0
0
SPLINE
5
202
100
AcDbEntity
8
0
100
AcDbSpline
70
4
71
3
72
8
73
4
74
0
42
0.000000001
43
0.0000000001
44
0.0000000001
40
0
40
0
40
0
40
0
40
1
40
1
40
1
40
1
41
1
41
1
41
1
41
1
10
148.19560371484235
20
-36.838857664632805
30
0
10
148.26195632121477
20
-33.178994958349911
30
0
10
149.16706540554483
20
-29.468091377558604
30
0
10
151.26005323063464
20
-26.41955914551048
30
0
0
SPLINE
5
203
100
AcDbEntity
8
0
100
AcDbSpline
70
4
71
3
72
8
73
4
74
0
42
0.000000001
43
0.0000000001
44
0.0000000001
40
0
40
0
40
0
40
0
40
1
40
1
40
1
40
1
41
1
41
1
41
1
41
1
10
151.26005323063464
20
-26.41955914551048
30
0
10
151.7266322903277
20
-25.739207488700334
30
0
10
152.28137415218185
20
-25.123236934964797
30
0
10
152.81629026524618
20
-24.492186122851169
30
0
0
SPLINE
5
204
100
AcDbEntity
8
0
100
AcDbSpline
70
4
71
3
72
8
73
4
74
0
42
0.000000001
43
0.0000000001
44
0.0000000001
40
0
40
0
40
0
40
0
40
1
40
1
40
1
40
1
41
1
41
1
41
1
41
1
10
152.81629026524618
20
-24.492186122851169
30
0
10
155.36315013681741
20
-21.490054685811899
30
0
10
156.22677304615382
20
-17.22524161460688
30
0
10
155.03949806403284
20
-13.513758023877076
30
0
0
LINE
5
205
100
AcDbEntity
8
0
100
AcDbLine
10
155.03949806403284
20
-13.513758023877074
30
0
11
155.03947466253521
21
-13.508537934439017
31
0
0
LINE
5
206
100
AcDbEntity
8
0
100
AcDbLine
10
18.471294600753076
20
-26.263490117413603
30
0
11
19.222322401176697
21
-27.274447438658651
31
0
0
LINE
5
207
100
AcDbEntity
8
0
100
AcDbLine
10
19.222322401176697
20
-27.274447438658651
30
0
11
24.024145947859061
21
-29.387423641350953
31
0
0
SPLINE
5
208
100
AcDbEntity
8
0
100
AcDbSpline
70
4
71
3
72
8
73
4
74
0
42
0.000000001
43
0.0000000001
44
0.0000000001
40
0
40
0
40
0
40
0
40
1
40
1
40
1
40
1
41
1
41
1
41
1
41
1
10
24.024145947859061
20
-29.387423641350953
30
0
10
24.834952327450765
20
-29.786470478422736
30
0
10
25.673977789460508
20
-30.111276043481077
30
0
10
26.530575515099059
20
-30.358360276899802
30
0
0
SPLINE
5
209
100
AcDbEntity
8
0
100
AcDbSpline
70
4
71
3
72
8
73
4
74
0
42
0.000000001
43
0.0000000001
44
0.0000000001
40
0
40
0
40
0
40
0
40
1
40
1
40
1
40
1
41
1
41
1
41
1
41
1
10
26.530575515099059
20
-30.358360276899802
30
0
10
28.253447340665588
20
-30.856588813301933
30
0
10
30.047454352108723
20
-31.038711933709955
30
0
10
31.821326645231412
20
-30.896029489059636
30
0
0
LINE
5
210
100
AcDbEntity
8
0
100
AcDbLine
10
31.821326645231412
20
-30.896029489059636
30
0
11
40.752118851723367
21
-30.952870462944606
31
0
0
SPLINE
5
211
100
AcDbEntity
8
0
100
AcDbSpline
70
4
71
3
72
8
73
4
74
0
42
0.000000001
43
0.0000000001
44
0.0000000001
40
0
40
0
40
0
40
0
40
1
40
1
40
1
40
1
41
1
41
1
41
1
41
1
10
40.752118851723367
20
-30.952870462944606
30
0
10
43.476982643546762
20
-31.028851764771129
30
0
10
46.206778859893973
20
-30.896029489059636
30
0
10
48.915762650811374
20
-30.561363755061265
30
0
0
SPLINE
5
212
100
AcDbEntity
8
0
100
AcDbSpline
70
4
71
3
72
8
73
4
74
0
42
0.000000001
43
0.0000000001
44
0.0000000001
40
0
40
0
40
0
40
0
40
1
40
1
40
1
40
1
41
1
41
1
41
1
41
1
10
48.915762650811374
20
-30.561363755061265
30
0
10
49.787334094475924
20
-30.447101797354033
30
0
10
50.678635236235792
20
-30.312539491829451
30
0
10
51.452071482382316
20
-29.845051482120791
30
0
0
SPLINE
5
213
100
AcDbEntity
8
0
100
AcDbSpline
70
4
71
3
72
8
73
4
74
0
42
0.000000001
43
0.0000000001
44
0.0000000001
40
0
40
0
40
0
40
0
40
1
40
1
40
1
40
1
41
1
41
1
41
1
41
1
10
51.452071482382316
20
-29.845051482120791
30
0
10
52.328302663686451
20
-29.314922399150607
30
0
10
52.999000116092688
20
-28.368346180980168
30
0
10
53.263722939276562
20
-27.286627647347856
30
0
0
SPLINE
5
214
100
AcDbEntity
8
0
100
AcDbSpline
70
4
71
3
72
8
73
4
74
0
42
0.000000001
43
0.0000000001
44
0.0000000001
40
0
40
0
40
0
40
0
40
1
40
1
40
1
40
1
41
1
41
1
41
1
41
1
10
53.263722939276562
20
-27.286627647347856
30
0
10
53.562788269470225
20
-27.11552471575445
30
0
10
53.786608060017436
20
-26.783179021507667
30
0
10
53.855790326590707
20
-26.412552671378975
30
0
0
SPLINE
5
215
100
AcDbEntity
8
0
100
AcDbSpline
70
4
71
3
72
8
73
4
74
0
42
0.000000001
43
0.0000000001
44
0.0000000001
40
0
40
0
40
0
40
0
40
1
40
1
40
1
40
1
41
1
41
1
41
1
41
1
10
53.855790326590707
20
-26.412552671378975
30
0
10
53.92491645174664
20
-26.041926321249079
30
0
10
53.838129840734659
20
-25.63707938480195
30
0
10
53.62605162661491
20
-25.342434336498574
30
0
0
SPLINE
5
216
100
AcDbEntity
8
0
100
AcDbSpline
70
4
71
3
72
8
73
4
74
0
42
0.000000001
43
0.0000000001
44
0.0000000001
40
0
40
0
40
0
40
0
40
1
40
1
40
1
40
1
41
1
41
1
41
1
41
1
10
53.62605162661491
20
-25.342434336498574
30
0
10
53.406274018116491
20
-25.036189089443294
30
0
10
53.063506604621423
20
-24.859866068411833
30
0
10
52.716159655511547
20
-24.834925641094916
30
0
0
SPLINE
5
217
100
AcDbEntity
8
0
100
AcDbSpline
70
4
71
3
72
8
73
4
74
0
42
0.000000001
43
0.0000000001
44
0.0000000001
40
0
40
0
40
0
40
0
40
1
40
1
40
1
40
1
41
1
41
1
41
1
41
1
10
52.716159655511547
20
-24.834925641094916
30
0
10
52.368820726604156
20
-24.815785313153359
30
0
10
52.019476747077327
20
-24.930047270861799
30
0
10
51.723820002936691
20
-25.137110818586731
30
0
0
SPLINE
5
218
100
AcDbEntity
8
0
100
AcDbSpline
70
4
71
3
72
8
73
4
74
0
42
0.000000001
43
0.0000000001
44
0.0000000001
40
0
40
0
40
0
40
0
40
1
40
1
40
1
40
1
41
1
41
1
41
1
41
1
10
51.723820002936691
20
-25.137110818586731
30
0
10
51.320636404176561
20
-25.420155668136989
30
0
10
51.019838710247704
20
-25.853423091528409
30
0
10
50.752725866725456
20
-26.298290713670539
30
0
0
SPLINE
5
219
100
AcDbEntity
8
0
100
AcDbSpline
70
4
71
3
72
8
73
4
74
0
42
0.000000001
43
0.0000000001
44
0.0000000001
40
0
40
0
40
0
40
0
40
1
40
1
40
1
40
1
41
1
41
1
41
1
41
1
10
50.752725866725456
20
-26.298290713670539
30
0
10
50.485613023203229
20
-26.740838296062289
30
0
10
50.240740201151866
20
-27.206586275959065
30
0
10
49.912168546042466
20
-27.594612924216229
30
0
0
SPLINE
5
220
100
AcDbEntity
8
0
100
AcDbSpline
70
4
71
3
72
8
73
4
74
0
42
0.000000001
43
0.0000000001
44
0.0000000001
40
0
40
0
40
0
40
0
40
1
40
1
40
1
40
1
41
1
41
1
41
1
41
1
10
49.912168546042466
20
-27.594612924216229
30
0
10
49.468065874240743
20
-28.11720187799677
30
0
10
48.877025072843736
20
-28.478548069125136
30
0
10
48.246524875256078
20
-28.613110374648514
30
0
0
LINE
5
221
100
AcDbEntity
8
0
100
AcDbLine
10
48.246524875256078
20
-28.61311037464851
30
0
11
45.818384514502853
21
-28.892675164573799
31
0
0
SPLINE
5
222
100
AcDbEntity
8
0
100
AcDbSpline
70
4
71
3
72
8
73
4
74
0
42
0.000000001
43
0.0000000001
44
0.0000000001
40
0
40
0
40
0
40
0
40
1
40
1
40
1
40
1
41
1
41
1
41
1
41
1
10
45.818384514502853
20
-28.892675164573799
30
0
10
42.483680566674558
20
-29.096258652673761
30
0
10
39.141461689124597
20
-29.139759397993732
30
0
10
35.803469458280418
20
-29.025497440285296
30
0
0
SPLINE
5
223
100
AcDbEntity
8
0
100
AcDbSpline
70
4
71
3
72
8
73
4
74
0
42
0.000000001
43
0.0000000001
44
0.0000000001
40
0
40
0
40
0
40
0
40
1
40
1
40
1
40
1
41
1
41
1
41
1
41
1
10
35.803469458280418
20
-29.025497440285296
30
0
10
32.113594853825184
20
-28.892675164573799
30
0
10
28.368765821992248
20
-28.565549559765078
30
0
10
24.913241533937544
20
-27.098124417627186
30
0
0
SPLINE
5
224
100
AcDbEntity
8
0
100
AcDbSpline
70
4
71
3
72
8
73
4
74
0
42
0.000000001
43
0.0000000001
44
0.0000000001
40
0
40
0
40
0
40
0
40
1
40
1
40
1
40
1
41
1
41
1
41
1
41
1
10
24.913241533937544
20
-27.098124417627186
30
0
10
23.757229599297528
20
-26.608016020350792
30
0
10
22.642497646810618
20
-25.992045466615256
30
0
10
21.58892374831796
20
-25.264132994921667
30
0
0
SPLINE
5
225
100
AcDbEntity
8
0
100
AcDbSpline
70
4
71
3
72
8
73
4
74
0
42
0.000000001
43
0.0000000001
44
0.0000000001
40
0
40
0
40
0
40
0
40
1
40
1
40
1
40
1
41
1
41
1
41
1
41
1
10
21.58892374831796
20
-25.264132994921667
30
0
10
21.248782951134373
20
-24.68644309706804
30
0
10
20.708786728407148
20
-24.26245583267935
30
0
10
20.110583886197496
20
-24.104693129650947
30
0
0
SPLINE
5
226
100
AcDbEntity
8
0
100
AcDbSpline
70
4
71
3
72
8
73
4
74
0
42
0.000000001
43
0.0000000001
44
0.0000000001
40
0
40
0
40
0
40
0
40
1
40
1
40
1
40
1
41
1
41
1
41
1
41
1
10
20.110583886197496
20
-24.104693129650947
30
0
10
19.373246571403435
20
-23.910969810491011
30
0
10
18.559396524971408
20
-24.123833457592504
30
0
10
17.98057450204929
20
-24.682383027504571
30
0
0
LINE
5
227
100
AcDbEntity
8
0
100
AcDbLine
10
17.980574502049286
20
-24.682383027504567
30
0
11
18.471294600753076
21
-26.263490117413603
31
0
0
ELLIPSE
5
228
100
AcDbEntity
8
0
100
AcDbEllipse
10
26.454265364583335
20
-19.806655416666665
30
0
11
0
21
2.1370923677083336
31
0.0
40
0.5869769466508783
41
-1.5707963267948966
42
4.7123889803846897
0
ELLIPSE
5
229
100
AcDbEntity
8
0
100
AcDbEllipse
10
38.222053614583345
20
-21.129082604166701
30
0
11
0
21
2.2570746916666673
31
0.0
40
0.54719729128148809
41
-1.5707963267948966
42
4.7123889803846897
0
ELLIPSE
5
230
100
AcDbEntity
8
0
100
AcDbEllipse
10
134.12222268892219
20
-23.480832038914055
30
0
11
0
21
-2.3589370877045592
31
0.0
40
0.40199990058433849
41
-1.5707963267948966
42
4.7123889803846897
0
ELLIPSE
5
231
100
AcDbEntity
8
0
100
AcDbEllipse
10
118.92750521399698
20
-23.542321655208369
30
0
11
0
21
-2.2570746916666673
31
0.0
40
0.4506752185219623
41
-1.5707963267948966
42
4.7123889803846897
0
LINE
5
232
100
AcDbEntity
8
0
100
AcDbLine
10
127.86454039426603
20
-27.843033424106039
30
0
11
119.16176694169218
21
-27.796187184608961
31
0
0
SPLINE
5
233
100
AcDbEntity
8
0
100
AcDbSpline
70
4
71
3
72
8
73
4
74
0
42
0.000000001
43
0.0000000001
44
0.0000000001
40
0
40
0
40
0
40
0
40
1
40
1
40
1
40
1
41
1
41
1
41
1
41
1
10
123.9840686559841
20
-29.384657121831008
30
0
10
127.57973430450703
20
-29.494124354941114
30
0
10
131.22895129770646
20
-29.763729243473328
30
0
10
134.5962500035196
20
-30.973127059053059
30
0
0
LINE
5
234
100
AcDbEntity
8
0
100
AcDbLine
10
140.87372275809275
20
-31.661001943092391
30
0
11
140.1418700117126
21
-30.827808112042877
31
0
0
LINE
5
235
100
AcDbEntity
8
0
100
AcDbLine
10
141.35191391391646
20
-32.96409223766566
30
0
11
140.87372275809275
21
-31.661001943092391
31
0
0
SPLINE
5
236
100
AcDbEntity
8
0
100
AcDbSpline
70
4
71
3
72
8
73
4
74
0
42
0.000000001
43
0.0000000001
44
0.0000000001
40
0
40
0
40
0
40
0
40
1
40
1
40
1
40
1
41
1
41
1
41
1
41
1
10
106.61652819992597
20
-32.420102232081064
30
0
10
106.83069450146861
20
-32.67249829794126
30
0
10
107.16471046305418
20
-32.817817244951442
30
0
10
107.5031890366961
20
-32.838372227587577
30
0
0
LINE
5
237
100
AcDbEntity
8
0
100
AcDbLine
10
111.85870621915079
20
-29.724531369608531
30
0
11
114.22485190724836
21
-29.494124354941114
31
0
0
SPLINE
5
238
100
AcDbEntity
8
0
100
AcDbSpline
70
4
71
3
72
8
73
4
74
0
42
0.000000001
43
0.0000000001
44
0.0000000001
40
0
40
0
40
0
40
0
40
1
40
1
40
1
40
1
41
1
41
1
41
1
41
1
10
134.5962500035196
20
-30.973127059053059
30
0
10
135.72274693044739
20
-31.377056368999664
30
0
10
136.80901782540639
20
-31.884716637832167
30
0
10
137.83569213851621
20
-32.48463531710216
30
0
0
SPLINE
5
239
100
AcDbEntity
8
0
100
AcDbSpline
70
4
71
3
72
8
73
4
74
0
42
0.000000001
43
0.0000000001
44
0.0000000001
40
0
40
0
40
0
40
0
40
1
40
1
40
1
40
1
41
1
41
1
41
1
41
1
10
133.02020938923161
20
-28.286160607917434
30
0
10
131.3413254963975
20
-27.875538978042592
30
0
10
129.59312262346879
20
-27.725439802512241
30
0
10
127.86454039426603
20
-27.843033424106032
30
0
0
SPLINE
5
240
100
AcDbEntity
8
0
100
AcDbSpline
70
4
71
3
72
8
73
4
74
0
42
0.000000001
43
0.0000000001
44
0.0000000001
40
0
40
0
40
0
40
0
40
1
40
1
40
1
40
1
41
1
41
1
41
1
41
1
10
108.73500282661105
20
-28.709210831944123
30
0
10
107.88114336077018
20
-29.146123718679302
30
0
10
107.22756998804441
20
-29.926257013156125
30
0
10
106.96960600180135
20
-30.817769632150519
30
0
0
SPLINE
5
241
100
AcDbEntity
8
0
100
AcDbSpline
70
4
71
3
72
8
73
4
74
0
42
0.000000001
43
0.0000000001
44
0.0000000001
40
0
40
0
40
0
40
0
40
1
40
1
40
1
40
1
41
1
41
1
41
1
41
1
10
106.96960600180135
20
-30.817769632150519
30
0
10
106.67817633285188
20
-30.958786373493151
30
0
10
106.46007105324195
20
-31.232693467693515
30
0
10
106.39265513100327
20
-31.538150070126409
30
0
0
SPLINE
5
242
100
AcDbEntity
8
0
100
AcDbSpline
70
4
71
3
72
8
73
4
74
0
42
0.000000001
43
0.0000000001
44
0.0000000001
40
0
40
0
40
0
40
0
40
1
40
1
40
1
40
1
41
1
41
1
41
1
41
1
10
139.27628739686196
20
-33.44020299826564
30
0
10
139.99479919966905
20
-33.599862630836334
30
0
10
140.78787023017807
20
-33.424428244149681
30
0
10
141.35191391391646
20
-32.96409223766566
30
0
0
LINE
5
243
100
AcDbEntity
8
0
100
AcDbLine
10
140.1418700117126
20
-30.827808112042877
30
0
11
135.46264542336826
21
-29.086370862178374
31
0
0
SPLINE
5
244
100
AcDbEntity
8
0
100
AcDbSpline
70
4
71
3
72
8
73
4
74
0
42
0.000000001
43
0.0000000001
44
0.0000000001
40
0
40
0
40
0
40
0
40
1
40
1
40
1
40
1
41
1
41
1
41
1
41
1
10
135.46264542336826
20
-29.086370862178374
30
0
10
134.67254034955869
20
-28.757491139996642
30
0
10
133.85493667588858
20
-28.489798342872497
30
0
10
133.02020938923161
20
-28.286160607917434
30
0
0
SPLINE
5
245
100
AcDbEntity
8
0
100
AcDbSpline
70
4
71
3
72
8
73
4
74
0
42
0.000000001
43
0.0000000001
44
0.0000000001
40
0
40
0
40
0
40
0
40
1
40
1
40
1
40
1
41
1
41
1
41
1
41
1
10
114.22485190724836
20
-29.494124354941114
30
0
10
117.47441502755669
20
-29.326338333886127
30
0
10
120.73130120827975
20
-29.290486619985451
30
0
10
123.9840686559841
20
-29.384657121831008
30
0
0
SPLINE
5
246
100
AcDbEntity
8
0
100
AcDbSpline
70
4
71
3
72
8
73
4
74
0
42
0.000000001
43
0.0000000001
44
0.0000000001
40
0
40
0
40
0
40
0
40
1
40
1
40
1
40
1
41
1
41
1
41
1
41
1
10
106.39265513100327
20
-31.538150070126409
30
0
10
106.3252939167933
20
-31.843606672559304
30
0
10
106.40986471374957
20
-32.177266623261204
30
0
10
106.61652819992597
20
-32.420102232081064
30
0
0
SPLINE
5
247
100
AcDbEntity
8
0
100
AcDbSpline
70
4
71
3
72
8
73
4
74
0
42
0.000000001
43
0.0000000001
44
0.0000000001
40
0
40
0
40
0
40
0
40
1
40
1
40
1
40
1
41
1
41
1
41
1
41
1
10
137.83569213851621
20
-32.48463531710216
30
0
10
138.16714854590131
20
-32.960746077701543
30
0
10
138.69335772006892
20
-33.310180782519403
30
0
10
139.27628739686196
20
-33.44020299826564
30
0
0
SPLINE
5
248
100
AcDbEntity
8
0
100
AcDbSpline
70
4
71
3
72
8
73
4
74
0
42
0.000000001
43
0.0000000001
44
0.0000000001
40
0
40
0
40
0
40
0
40
1
40
1
40
1
40
1
41
1
41
1
41
1
41
1
10
109.41649292484536
20
-31.632320571971967
30
0
10
109.67678591002498
20
-31.267589135890162
30
0
10
109.91540670040195
20
-30.88373678572767
30
0
10
110.235589346156
20
-30.563939497734264
30
0
0
SPLINE
5
249
100
AcDbEntity
8
0
100
AcDbSpline
70
4
71
3
72
8
73
4
74
0
42
0.000000001
43
0.0000000001
44
0.0000000001
40
0
40
0
40
0
40
0
40
1
40
1
40
1
40
1
41
1
41
1
41
1
41
1
10
110.235589346156
20
-30.563939497734264
30
0
10
110.66835329956696
20
-30.133240908075308
30
0
10
111.2443037949829
20
-29.835432671274688
30
0
10
111.85870621915079
20
-29.724531369608531
30
0
0
SPLINE
5
250
100
AcDbEntity
8
0
100
AcDbSpline
70
4
71
3
72
8
73
4
74
0
42
0.000000001
43
0.0000000001
44
0.0000000001
40
0
40
0
40
0
40
0
40
1
40
1
40
1
40
1
41
1
41
1
41
1
41
1
10
111.20655525517152
20
-28.11885260971447
30
0
10
110.35723655571377
20
-28.213023111560027
30
0
10
109.48869189188002
20
-28.32392441322558
30
0
10
108.73500282661105
20
-28.709210831944123
30
0
0
SPLINE
5
251
100
AcDbEntity
8
0
100
AcDbSpline
70
4
71
3
72
8
73
4
74
0
42
0.000000001
43
0.0000000001
44
0.0000000001
40
0
40
0
40
0
40
0
40
1
40
1
40
1
40
1
41
1
41
1
41
1
41
1
10
108.47019252134632
20
-32.589322321691498
30
0
10
108.86308213725883
20
-32.356047169911982
30
0
10
109.15619993966573
20
-31.998964099461844
30
0
10
109.41649292484536
20
-31.632320571971967
30
0
0
SPLINE
5
252
100
AcDbEntity
8
0
100
AcDbSpline
70
4
71
3
72
8
73
4
74
0
42
0.000000001
43
0.0000000001
44
0.0000000001
40
0
40
0
40
0
40
0
40
1
40
1
40
1
40
1
41
1
41
1
41
1
41
1
10
119.16176694169218
20
-27.796187184608961
30
0
10
116.50647369098567
20
-27.733566190995926
30
0
10
113.84637394918519
20
-27.843033424106032
30
0
10
111.20655525517152
20
-28.11885260971447
30
0
0
SPLINE
5
253
100
AcDbEntity
8
0
100
AcDbSpline
70
4
71
3
72
8
73
4
74
0
42
0.000000001
43
0.0000000001
44
0.0000000001
40
0
40
0
40
0
40
0
40
1
40
1
40
1
40
1
41
1
41
1
41
1
41
1
10
107.5031890366961
20
-32.838372227587577
30
0
10
107.84165979490537
20
-32.85414698170414
30
0
10
108.18208441128291
20
-32.75997647985858
30
0
10
108.47019252134632
20
-32.589322321691498
30
0
0
LWPOLYLINE
5
254
100
AcDbEntity
8
0
100
AcDbPolyline
90
4
70
1
43
0.0
10
10
20
20
10
60
20
20
10
60
20
24.800000000000001
10
10
20
24.800000000000001
0
LWPOLYLINE
5
255
100
AcDbEntity
8
0
100
AcDbPolyline
90
4
70
1
43
0.0
10
73.685312216005215
20
20.296611774914972
10
123.68531221600522
20
20.296611774914972
10
123.68531221600522
20
15.496611774914971
10
73.685312216005215
20
15.496611774914971
0
ENDSEC
0
SECTION
2
OBJECTS
0
DICTIONARY
5
C
100
AcDbDictionary
3
ACAD_GROUP
350
D
3
ACAD_MLINESTYLE
350
17
0
DICTIONARY
5
D
100
AcDbDictionary
0
DICTIONARY
5
1A
330
C
100
AcDbDictionary
0
DICTIONARY
5
17
100
AcDbDictionary
0
ENDSEC
0
EOF
