0
SECTION
2
HEADER
9
$INSUNITS
70
4
9
$ACADVER
1
AC1014
9
$HANDSEED
5
FFFF
0
ENDSEC
0
SECTION
2
TABLES
0
TABLE
2
VPORT
5
8
100
AcDbSymbolTable
0
ENDTAB
0
TABLE
2
LTYPE
5
5
100
AcDbSymbolTable
0
LTYPE
5
14
100
AcDbSymbolTableRecord
100
AcDbLinetypeTableRecord
2
BYBLOCK
70
0
0
LTYPE
5
15
100
AcDbSymbolTableRecord
100
AcDbLinetypeTableRecord
2
BYLAYER
70
0
0
ENDTAB
0
TABLE
2
LAYER
5
2
100
AcDbSymbolTable
70
2
0
LAYER
5
50
100
AcDbSymbolTableRecord
100
AcDbLayerTableRecord
2
0
70
0
6
CONTINUOUS
0
ENDTAB
0
TABLE
2
STYLE
5
3
100
AcDbSymbolTable
70
1
0
STYLE
5
11
100
AcDbSymbolTableRecord
100
AcDbTextStyleTableRecord
2
STANDARD
70
0
0
ENDTAB
0
TABLE
2
VIEW
5
6
100
AcDbSymbolTable
70
0
0
ENDTAB
0
TABLE
2
UCS
5
7
100
AcDbSymbolTable
70
0
0
ENDTAB
0
TABLE
2
APPID
5
9
100
AcDbSymbolTable
70
2
0
APPID
5
12
100
AcDbSymbolTableRecord
100
AcDbRegAppTableRecord
2
ACAD
70
0
0
ENDTAB
0
TABLE
2
DIMSTYLE
5
A
100
AcDbSymbolTable
70
1
0
ENDTAB
0
TABLE
2
BLOCK_RECORD
5
1
100
AcDbSymbolTable
70
1
0
BLOCK_RECORD
5
1F
100
AcDbSymbolTableRecord
100
AcDbBlockTableRecord
2
*MODEL_SPACE
0
BLOCK_RECORD
5
1B
100
AcDbSymbolTableRecord
100
AcDbBlockTableRecord
2
*PAPER_SPACE
0
ENDTAB
0
ENDSEC
0
SECTION
2
BLOCKS
0
BLOCK
5
20
100
AcDbEntity
100
AcDbBlockBegin
2
*MODEL_SPACE
0
ENDBLK
5
21
100
AcDbEntity
100
AcDbBlockEnd
0
BLOCK
5
1C
100
AcDbEntity
100
AcDbBlockBegin
2
*PAPER_SPACE
0
ENDBLK
5
1D
100
AcDbEntity
100
AcDbBlockEnd
0
ENDSEC
0
SECTION
2
ENTITIES
0
SPLINE
5
100
100
AcDbEntity
8
0
100
AcDbSpline
70
4
71
3
72
8
73
4
74
0
42
0.000000001
43
0.0000000001
44
0.0000000001
40
0
40
0
40
0
40
0
40
1
40
1
40
1
40
1
41
1
41
1
41
1
41
1
10
53.570634557983396
20
-0.31669354276410411
30
0
10
50.387993438274663
20
-0.84914266548467321
30
0
10
47.549110958111889
20
-1.9569616463096893
30
0
10
44.943906472656252
20
-2.9893793352454745
30
0
0
SPLINE
5
101
100
AcDbEntity
8
0
100
AcDbSpline
70
4
71
3
72
8
73
4
74
0
42
0.000000001
43
0.0000000001
44
0.0000000001
40
0
40
0
40
0
40
0
40
1
40
1
40
1
40
1
41
1
41
1
41
1
41
1
10
44.943906472656252
20
-2.9893793352454745
30
0
10
40.308930967801189
20
-4.8274308275132602
30
0
10
36.069646706026589
20
-6.4978594478126119
30
0
10
32.214689920084638
20
-6.2931159398392644
30
0
0
SPLINE
5
102
100
AcDbEntity
8
0
100
AcDbSpline
70
4
71
3
72
8
73
4
74
0
42
0.000000001
43
0.0000000001
44
0.0000000001
40
0
40
0
40
0
40
0
40
1
40
1
40
1
40
1
41
1
41
1
41
1
41
1
10
32.214689920084638
20
-6.2931159398392644
30
0
10
29.710823279954255
20
-6.160293664127769
30
0
10
26.95595217627347
20
-5.2305377341473056
30
0
10
23.933030958170569
20
-4.1401190514519621
30
0
0
SPLINE
5
103
100
AcDbEntity
8
0
100
AcDbSpline
70
4
71
3
72
8
73
4
74
0
42
0.000000001
43
0.0000000001
44
0.0000000001
40
0
40
0
40
0
40
0
40
1
40
1
40
1
40
1
41
1
41
1
41
1
41
1
10
23.933030958170569
20
-4.1401190514519621
30
0
10
20.890447801761212
20
-3.043320259442766
30
0
10
17.258020537056751
20
-1.732497800456287
30
0
10
13.082524077514643
20
-2.1727253430976536
30
0
0
SPLINE
5
104
100
AcDbEntity
8
0
100
AcDbSpline
70
4
71
3
72
8
73
4
74
0
42
0.000000001
43
0.0000000001
44
0.0000000001
40
0
40
0
40
0
40
0
40
1
40
1
40
1
40
1
41
1
41
1
41
1
41
1
10
13.082524077514643
20
-2.1727253430976536
30
0
10
10.203788846892571
20
-2.476650550402554
30
0
10
7.468612443614929
20
-3.6018698293548357
30
0
10
5.2609572801513629
20
-5.4393413116853262
30
0
0
SPLINE
5
105
100
AcDbEntity
8
0
100
AcDbSpline
70
4
71
3
72
8
73
4
74
0
42
0.000000001
43
0.0000000001
44
0.0000000001
40
0
40
0
40
0
40
0
40
1
40
1
40
1
40
1
41
1
41
1
41
1
41
1
10
5.2609572801513629
20
-5.4393413116853262
30
0
10
3.0693181016639146
20
-7.26173253563773
30
0
10
1.5312593504092795
20
-9.6287530910011139
30
0
10
0.69837664835611357
20
-12.232417700907103
30
0
0
SPLINE
5
106
100
AcDbEntity
8
0
100
AcDbSpline
70
4
71
3
72
8
73
4
74
0
42
0.000000001
43
0.0000000001
44
0.0000000001
40
0
40
0
40
0
40
0
40
1
40
1
40
1
40
1
41
1
41
1
41
1
41
1
10
0.69837664835611357
20
-12.232417700907103
30
0
10
-0.85049827510186193
20
-17.073760650089955
30
0
10
0.21228307979164004
20
-22.420292254926082
30
0
10
3.5356116630859291
20
-26.33825938344232
30
0
0
SPLINE
5
107
100
AcDbEntity
8
0
100
AcDbSpline
70
4
71
3
72
8
73
4
74
0
42
0.000000001
43
0.0000000001
44
0.0000000001
40
0
40
0
40
0
40
0
40
1
40
1
40
1
40
1
41
1
41
1
41
1
41
1
10
3.5356116630859291
20
-26.33825938344232
30
0
10
4.0789101926003362
20
-26.978590354557475
30
0
10
4.545058664737061
20
-27.524379705843039
30
0
10
4.8775377824266588
20
-28.008688003742876
30
0
0
SPLINE
5
108
100
AcDbEntity
8
0
100
AcDbSpline
70
4
71
3
72
8
73
4
74
0
42
0.000000001
43
0.0000000001
44
0.0000000001
40
0
40
0
40
0
40
0
40
1
40
1
40
1
40
1
41
1
41
1
41
1
41
1
10
4.8775377824266588
20
-28.008688003742876
30
0
10
6.5082524233868178
20
-30.383828698231994
30
0
10
7.3122529970683754
20
-33.492681963791263
30
0
10
7.3697036737433876
20
-36.657796193297003
30
0
0
SPLINE
5
109
100
AcDbEntity
8
0
100
AcDbSpline
70
4
71
3
72
8
73
4
74
0
42
0.000000001
43
0.0000000001
44
0.0000000001
40
0
40
0
40
0
40
0
40
1
40
1
40
1
40
1
41
1
41
1
41
1
41
1
10
7.3697036737433876
20
-36.657796193297003
30
0
10
7.4278095923519718
20
-39.857131009122384
30
0
10
6.7956274945495654
20
-43.13418715658738
30
0
10
5.8743994586538237
20
-46.531885371072256
30
0
0
SPLINE
5
110
100
AcDbEntity
8
0
100
AcDbSpline
70
4
71
3
72
8
73
4
74
0
42
0.000000001
43
0.0000000001
44
0.0000000001
40
0
40
0
40
0
40
0
40
1
40
1
40
1
40
1
41
1
41
1
41
1
41
1
10
5.8743994586538237
20
-46.531885371072256
30
0
10
5.4204010440851933
20
-48.206374060936277
30
0
10
4.7472897269326459
20
-50.243368961802055
30
0
10
4.6858233532647828
20
-52.656790312173094
30
0
0
SPLINE
5
111
100
AcDbEntity
8
0
100
AcDbSpline
70
4
71
3
72
8
73
4
74
0
42
0.000000001
43
0.0000000001
44
0.0000000001
40
0
40
0
40
0
40
0
40
1
40
1
40
1
40
1
41
1
41
1
41
1
41
1
10
4.6858233532647828
20
-52.656790312173094
30
0
10
4.6542172905693553
20
-53.899751608459987
30
0
10
4.8030180533822939
20
-55.185633640128344
30
0
10
5.2226022255402196
20
-56.443095184854826
30
0
0
SPLINE
5
112
100
AcDbEntity
8
0
100
AcDbSpline
70
4
71
3
72
8
73
4
74
0
42
0.000000001
43
0.0000000001
44
0.0000000001
40
0
40
0
40
0
40
0
40
1
40
1
40
1
40
1
41
1
41
1
41
1
41
1
10
5.2226022255402196
20
-56.443095184854826
30
0
10
5.6488792260195577
20
-57.720277067458959
30
0
10
6.3724628932546592
20
-58.992818870562324
30
0
10
7.5230630482941248
20
-60.080917513508496
30
0
0
SPLINE
5
113
100
AcDbEntity
8
0
100
AcDbSpline
70
4
71
3
72
8
73
4
74
0
42
0.000000001
43
0.0000000001
44
0.0000000001
40
0
40
0
40
0
40
0
40
1
40
1
40
1
40
1
41
1
41
1
41
1
41
1
10
7.5230630482941248
20
-60.080917513508496
30
0
10
9.2593512056500789
20
-61.72292564686596
30
0
10
11.266343207259091
20
-62.342956270164969
30
0
10
12.775781926915551
20
-62.790723941995978
30
0
0
SPLINE
5
114
100
AcDbEntity
8
0
100
AcDbSpline
70
4
71
3
72
8
73
4
74
0
42
0.000000001
43
0.0000000001
44
0.0000000001
40
0
40
0
40
0
40
0
40
1
40
1
40
1
40
1
41
1
41
1
41
1
41
1
10
12.775781926915551
20
-62.790723941995978
30
0
10
26.543074873335527
20
-66.876893952417944
30
0
10
40.665354497863042
20
-65.410048820216147
30
0
10
53.762320905348126
20
-66.057339910582456
30
0
0
SPLINE
5
115
100
AcDbEntity
8
0
100
AcDbSpline
70
4
71
3
72
8
73
4
74
0
42
0.000000001
43
0.0000000001
44
0.0000000001
40
0
40
0
40
0
40
0
40
1
40
1
40
1
40
1
41
1
41
1
41
1
41
1
10
53.762320905348126
20
-66.057339910582456
30
0
10
54.882503793771626
20
-66.114180884467416
30
0
10
56.181258830289515
20
-66.209302514235503
30
0
10
57.634763290317196
20
-66.095620566464362
30
0
0
SPLINE
5
116
100
AcDbEntity
8
0
100
AcDbSpline
70
4
71
3
72
8
73
4
74
0
42
0.000000001
43
0.0000000001
44
0.0000000001
40
0
40
0
40
0
40
0
40
1
40
1
40
1
40
1
41
1
41
1
41
1
41
1
10
57.634763290317196
20
-66.095620566464362
30
0
10
59.049187249307302
20
-65.98135860875712
30
0
10
60.735386841141775
20
-65.70817392814449
30
0
10
62.389048990675278
20
-64.795818296293703
30
0
0
SPLINE
5
117
100
AcDbEntity
8
0
100
AcDbSpline
70
4
71
3
72
8
73
4
74
0
42
0.000000001
43
0.0000000001
44
0.0000000001
40
0
40
0
40
0
40
0
40
1
40
1
40
1
40
1
41
1
41
1
41
1
41
1
10
62.389048990675278
20
-64.795818296293703
30
0
10
64.178140287277458
20
-63.809221392428263
30
0
10
65.425290341227637
20
-62.360936578230728
30
0
10
66.261491375644354
20
-60.823910243578965
30
0
0
SPLINE
5
118
100
AcDbEntity
8
0
100
AcDbSpline
70
4
71
3
72
8
73
4
74
0
42
0.000000001
43
0.0000000001
44
0.0000000001
40
0
40
0
40
0
40
0
40
1
40
1
40
1
40
1
41
1
41
1
41
1
41
1
10
66.261491375644354
20
-60.823910243578965
30
0
10
67.11010456440259
20
-59.263683511423373
30
0
10
67.503895605875698
20
-57.633855586756312
30
0
10
67.641758508697649
20
-56.07246883472493
30
0
0
SPLINE
5
119
100
AcDbEntity
8
0
100
AcDbSpline
70
4
71
3
72
8
73
4
74
0
42
0.000000001
43
0.0000000001
44
0.0000000001
40
0
40
0
40
0
40
0
40
1
40
1
40
1
40
1
41
1
41
1
41
1
41
1
10
67.641758508697649
20
-56.07246883472493
30
0
10
67.914994394993982
20
-52.978695827543746
30
0
10
67.228656551382471
20
-50.230028733237056
30
0
10
66.721574179596075
20
-47.868808277250238
30
0
0
SPLINE
5
120
100
AcDbEntity
8
0
100
AcDbSpline
70
4
71
3
72
8
73
4
74
0
42
0.000000001
43
0.0000000001
44
0.0000000001
40
0
40
0
40
0
40
0
40
1
40
1
40
1
40
1
41
1
41
1
41
1
41
1
10
66.721574179596075
20
-47.868808277250238
30
0
10
65.502552725793919
20
-42.191671007980418
30
0
10
64.7931222843238
20
-36.606755318788593
30
0
10
66.299832389356922
20
-31.869814158374147
30
0
0
SPLINE
5
121
100
AcDbEntity
8
0
100
AcDbSpline
70
4
71
3
72
8
73
4
74
0
42
0.000000001
43
0.0000000001
44
0.0000000001
40
0
40
0
40
0
40
0
40
1
40
1
40
1
40
1
41
1
41
1
41
1
41
1
10
66.299832389356922
20
-31.869814158374147
30
0
10
67.120747565523487
20
-29.288769936035891
30
0
10
68.779529962737826
20
-26.619564203180694
30
0
10
70.287297815463688
20
-23.443429784859134
30
0
0
SPLINE
5
122
100
AcDbEntity
8
0
100
AcDbSpline
70
4
71
3
72
8
73
4
74
0
42
0.000000001
43
0.0000000001
44
0.0000000001
40
0
40
0
40
0
40
0
40
1
40
1
40
1
40
1
41
1
41
1
41
1
41
1
10
70.287297815463688
20
-23.443429784859134
30
0
10
71.807318692347209
20
-20.241194919346075
30
0
10
73.176755612298578
20
-16.380648774652101
30
0
10
72.549417624505026
20
-12.158756438830959
30
0
0
SPLINE
5
123
100
AcDbEntity
8
0
100
AcDbSpline
70
4
71
3
72
8
73
4
74
0
42
0.000000001
43
0.0000000001
44
0.0000000001
40
0
40
0
40
0
40
0
40
1
40
1
40
1
40
1
41
1
41
1
41
1
41
1
10
72.549417624505026
20
-12.158756438830959
30
0
10
72.184859733867924
20
-9.7053144027649338
30
0
10
71.150597784132813
20
-7.4206552585419292
30
0
10
69.597159568637522
20
-5.5141625936360592
30
0
0
SPLINE
5
124
100
AcDbEntity
8
0
100
AcDbSpline
70
4
71
3
72
8
73
4
74
0
42
0.000000001
43
0.0000000001
44
0.0000000001
40
0
40
0
40
0
40
0
40
1
40
1
40
1
40
1
41
1
41
1
41
1
41
1
10
69.597159568637522
20
-5.5141625936360592
30
0
10
68.05718189457744
20
-3.6233301970467746
30
0
10
66.017741376358416
20
-2.1112442897119199
30
0
10
63.654302443189934
20
-1.171048180855337
30
0
0
SPLINE
5
125
100
AcDbEntity
8
0
100
AcDbSpline
70
4
71
3
72
8
73
4
74
0
42
0.000000001
43
0.0000000001
44
0.0000000001
40
0
40
0
40
0
40
0
40
1
40
1
40
1
40
1
41
1
41
1
41
1
41
1
10
63.654302443189934
20
-1.171048180855337
30
0
10
60.290823910416485
20
0.16703474519723238
30
0
10
56.762168246790516
20
0.21459556008067204
30
0
10
53.570615836785308
20
-0.31785356263989695
30
0
0
LINE
5
126
100
AcDbEntity
8
0
100
AcDbLine
10
34.725558181990309
20
-65.713611521310085
30
0
11
34.725558181990309
21
-35.713611521310085
31
0
0
LINE
5
127
100
AcDbEntity
8
0
100
AcDbLine
10
34.725558181990309
20
-35.713611521310085
30
0
11
37.725558181990309
21
-35.713611521310085
31
0
0
LINE
5
128
100
AcDbEntity
8
0
100
AcDbLine
10
37.725558181990309
20
-35.713611521310085
30
0
11
37.725558181990301
21
-65.805779431226611
31
0
0
CIRCLE
5
129
100
AcDbEntity
8
0
100
AcDbCircle
10
91.563457227540226
20
23.799880711908493
30
0
40
14.600000000000001
210
0
220
0
230
1
0
CIRCLE
5
130
100
AcDbEntity
8
0
100
AcDbCircle
10
91.563457227540226
20
23.799880711908493
30
0
40
21.5
210
0
220
0
230
1
0
LINE
5
131
100
AcDbEntity
8
0
100
AcDbLine
10
91.5
20
3.7999813826550399
30
0
11
91.5
21
9.2000186173449592
31
0
0
CIRCLE
5
132
100
AcDbEntity
8
0
100
AcDbCircle
10
91.563457227540226
20
23.799880711908493
30
0
40
19.999999999999996
210
0
220
0
230
1
0
LWPOLYLINE
5
133
100
AcDbEntity
8
0
100
AcDbPolyline
90
4
70
1
43
0.0
10
90
20
5
10
93
20
5
10
93
20
8
10
90
20
8
0
LINE
5
134
100
AcDbEntity
8
0
100
AcDbLine
10
91.5
20
8
30
0
11
91.5
21
5
31
0
0
LWPOLYLINE
5
135
100
AcDbEntity
8
0
100
AcDbPolyline
90
4
70
1
43
0.0
10
140
20
5
10
140
20
8
10
137
20
8
10
137
20
5
0
CIRCLE
5
136
100
AcDbEntity
8
0
100
AcDbCircle
10
138.5634572275402
20
23.799880711908493
30
0
40
21.5
210
0
220
0
230
1
0
ENDSEC
0
SECTION
2
OBJECTS
0
DICTIONARY
5
C
100
AcDbDictionary
3
ACAD_GROUP
350
D
3
ACAD_MLINESTYLE
350
17
0
DICTIONARY
5
D
100
AcDbDictionary
0
DICTIONARY
5
1A
330
C
100
AcDbDictionary
0
DICTIONARY
5
17
100
AcDbDictionary
0
ENDSEC
0
EOF
