0
SECTION
2
HEADER
9
$INSUNITS
70
4
9
$ACADVER
1
AC1014
9
$HANDSEED
5
FFFF
0
ENDSEC
0
SECTION
2
TABLES
0
TABLE
2
VPORT
5
8
100
AcDbSymbolTable
0
ENDTAB
0
TABLE
2
LTYPE
5
5
100
AcDbSymbolTable
0
LTYPE
5
14
100
AcDbSymbolTableRecord
100
AcDbLinetypeTableRecord
2
BYBLOCK
70
0
0
LTYPE
5
15
100
AcDbSymbolTableRecord
100
AcDbLinetypeTableRecord
2
BYLAYER
70
0
0
ENDTAB
0
TABLE
2
LAYER
5
2
100
AcDbSymbolTable
70
2
0
LAYER
5
50
100
AcDbSymbolTableRecord
100
AcDbLayerTableRecord
2
0
70
0
6
CONTINUOUS
0
ENDTAB
0
TABLE
2
STYLE
5
3
100
AcDbSymbolTable
70
1
0
STYLE
5
11
100
AcDbSymbolTableRecord
100
AcDbTextStyleTableRecord
2
STANDARD
70
0
0
ENDTAB
0
TABLE
2
VIEW
5
6
100
AcDbSymbolTable
70
0
0
ENDTAB
0
TABLE
2
UCS
5
7
100
AcDbSymbolTable
70
0
0
ENDTAB
0
TABLE
2
APPID
5
9
100
AcDbSymbolTable
70
2
0
APPID
5
12
100
AcDbSymbolTableRecord
100
AcDbRegAppTableRecord
2
ACAD
70
0
0
ENDTAB
0
TABLE
2
DIMSTYLE
5
A
100
AcDbSymbolTable
70
1
0
ENDTAB
0
TABLE
2
BLOCK_RECORD
5
1
100
AcDbSymbolTable
70
1
0
BLOCK_RECORD
5
1F
100
AcDbSymbolTableRecord
100
AcDbBlockTableRecord
2
*MODEL_SPACE
0
BLOCK_RECORD
5
1B
100
AcDbSymbolTableRecord
100
AcDbBlockTableRecord
2
*PAPER_SPACE
0
ENDTAB
0
ENDSEC
0
SECTION
2
BLOCKS
0
BLOCK
5
20
100
AcDbEntity
100
AcDbBlockBegin
2
*MODEL_SPACE
0
ENDBLK
5
21
100
AcDbEntity
100
AcDbBlockEnd
0
BLOCK
5
1C
100
AcDbEntity
100
AcDbBlockBegin
2
*PAPER_SPACE
0
ENDBLK
5
1D
100
AcDbEntity
100
AcDbBlockEnd
0
ENDSEC
0
SECTION
2
ENTITIES
0
LWPOLYLINE
5
100
100
AcDbEntity
8
0
100
AcDbPolyline
90
8
70
1
43
0.0
10
0
20
0
10
70
20
0
10
70
20
70
10
46.666666666666671
20
70
10
46.666666666666671
20
74.400000000000006
10
23.333333333333336
20
74.400000000000006
10
23.333333333333336
20
70
10
0
20
70
0
LINE
5
101
100
AcDbEntity
8
0
100
AcDbLine
10
70
20
70
30
0
11
0
21
70
31
0
0
LINE
5
102
100
AcDbEntity
8
0
100
AcDbLine
10
35
20
70
30
0
11
35
21
-7.0491553520055682e-32
31
0
0
LINE
5
103
100
AcDbEntity
8
0
100
AcDbLine
10
7.0491553520055682e-32
20
35
30
0
11
70
21
35
31
0
0
LINE
5
104
100
AcDbEntity
8
0
100
AcDbLine
10
1.2325951644078309e-31
20
0
30
0
11
23.333333333333336
21
0
31
0
0
LINE
5
105
100
AcDbEntity
8
0
100
AcDbLine
10
23.333333333333336
20
0
30
0
11
23.333333333333336
21
-4.4000000000000039
31
0
0
LINE
5
106
100
AcDbEntity
8
0
100
AcDbLine
10
23.333333333333336
20
-4.4000000000000039
30
0
11
46.666666666666671
21
-4.4000000000000039
31
0
0
LINE
5
107
100
AcDbEntity
8
0
100
AcDbLine
10
46.666666666666671
20
-4.4000000000000039
30
0
11
46.666666666666671
21
0
31
0
0
LINE
5
108
100
AcDbEntity
8
0
100
AcDbLine
10
46.666666666666671
20
0
30
0
11
70
21
0
31
0
0
LINE
5
109
100
AcDbEntity
8
0
100
AcDbLine
10
70
20
70
30
0
11
70
21
46.666666666666671
31
0
0
LINE
5
110
100
AcDbEntity
8
0
100
AcDbLine
10
70
20
46.666666666666671
30
0
11
74.400000000000006
21
46.666666666666671
31
0
0
LINE
5
111
100
AcDbEntity
8
0
100
AcDbLine
10
74.400000000000006
20
46.666666666666671
30
0
11
74.400000000000006
21
23.333333333333339
31
0
0
LINE
5
112
100
AcDbEntity
8
0
100
AcDbLine
10
74.400000000000006
20
23.333333333333339
30
0
11
70
21
23.333333333333339
31
0
0
LINE
5
113
100
AcDbEntity
8
0
100
AcDbLine
10
70
20
23.333333333333339
30
0
11
70
21
0
31
0
0
LINE
5
114
100
AcDbEntity
8
0
100
AcDbLine
10
0
20
70
30
0
11
0
21
46.666666666666671
31
0
0
LINE
5
115
100
AcDbEntity
8
0
100
AcDbLine
10
0
20
46.666666666666671
30
0
11
-4.4000000000000039
21
46.666666666666671
31
0
0
LINE
5
116
100
AcDbEntity
8
0
100
AcDbLine
10
-4.4000000000000039
20
46.666666666666671
30
0
11
-4.4000000000000039
21
23.333333333333339
31
0
0
LINE
5
117
100
AcDbEntity
8
0
100
AcDbLine
10
-4.4000000000000039
20
23.333333333333339
30
0
11
0
21
23.333333333333339
31
0
0
LINE
5
118
100
AcDbEntity
8
0
100
AcDbLine
10
0
20
23.333333333333339
30
0
11
0
21
0
31
0
0
LINE
5
119
100
AcDbEntity
8
0
100
AcDbLine
10
5.9212904956846746e-32
20
29.399999999999984
30
0
11
70
21
29.399999999999995
31
0
0
LWPOLYLINE
5
120
100
AcDbEntity
8
0
100
AcDbPolyline
90
4
70
1
43
0.0
10
48.483323032546544
20
29.399999999999984
42
1.4981470036162825
10
21.516676967453456
20
29.399999999999995
10
15.800000000000001
20
29.399999999999995
42
-1.3333333333333337
10
54.200000000000003
20
29.399999999999995
0
LWPOLYLINE
5
121
100
AcDbEntity
8
0
100
AcDbPolyline
90
12
70
1
43
0.0
10
170
20
0
10
240
20
-4.3140830754274083e-31
10
240
20
70
10
310
20
70
10
310
20
46.666666666666657
10
305.59999999999997
20
46.666666666666657
10
305.59999999999997
20
23.333333333333325
10
310
20
23.333333333333325
10
310
20
0
10
240
20
0
10
240
20
70
10
170
20
70
0
LINE
5
122
100
AcDbEntity
8
0
100
AcDbLine
10
310
20
70
30
0
11
310
21
0
31
0
0
LWPOLYLINE
5
123
100
AcDbEntity
8
0
100
AcDbPolyline
90
4
70
1
43
0.0
10
170
20
0
10
240
20
0
10
240
20
-70
10
170
20
-70
0
LWPOLYLINE
5
124
100
AcDbEntity
8
0
100
AcDbPolyline
90
4
70
1
43
0.0
10
170
20
70
10
100
20
70
10
100
20
0
10
170
20
0
0
LWPOLYLINE
5
125
100
AcDbEntity
8
0
100
AcDbPolyline
90
8
70
1
43
0.0
10
170
20
70
10
240
20
70
10
240
20
140
10
216.66666666666663
20
140
10
216.66666666666663
20
135.59999999999999
10
193.33333333333331
20
135.59999999999999
10
193.33333333333331
20
140
10
170
20
140
0
LINE
5
126
100
AcDbEntity
8
0
100
AcDbLine
10
240
20
140
30
0
11
170
21
140
31
0
0
LINE
5
127
100
AcDbEntity
8
0
100
AcDbLine
10
170
20
35
30
0
11
240
21
35
31
0
0
LINE
5
128
100
AcDbEntity
8
0
100
AcDbLine
10
205
20
70
30
0
11
205
21
0
31
0
0
LINE
5
129
100
AcDbEntity
8
0
100
AcDbLine
10
193.33333333333331
20
-65.600000000000009
30
0
11
216.66666666666663
21
-65.600000000000009
31
0
0
LINE
5
130
100
AcDbEntity
8
0
100
AcDbLine
10
170
20
-70
30
0
11
193.33333333333331
21
-70
31
0
0
LINE
5
131
100
AcDbEntity
8
0
100
AcDbLine
10
193.33333333333331
20
-70
30
0
11
193.33333333333331
21
-65.600000000000009
31
0
0
LINE
5
132
100
AcDbEntity
8
0
100
AcDbLine
10
216.66666666666663
20
-65.600000000000009
30
0
11
216.66666666666663
21
-70
31
0
0
LINE
5
133
100
AcDbEntity
8
0
100
AcDbLine
10
216.66666666666663
20
-70
30
0
11
240
21
-70
31
0
0
LINE
5
134
100
AcDbEntity
8
0
100
AcDbLine
10
104.40000000000001
20
46.666666666666657
30
0
11
104.40000000000001
21
23.333333333333321
31
0
0
LINE
5
135
100
AcDbEntity
8
0
100
AcDbLine
10
100
20
23.333333333333321
30
0
11
100
21
0
31
0
0
LINE
5
136
100
AcDbEntity
8
0
100
AcDbLine
10
100
20
46.666666666666657
30
0
11
104.40000000000001
21
46.666666666666657
31
0
0
LINE
5
137
100
AcDbEntity
8
0
100
AcDbLine
10
104.40000000000001
20
23.333333333333321
30
0
11
100
21
23.333333333333321
31
0
0
LINE
5
138
100
AcDbEntity
8
0
100
AcDbLine
10
100
20
70
30
0
11
100
21
46.666666666666657
31
0
0
LINE
5
139
100
AcDbEntity
8
0
100
AcDbLine
10
205
20
70
30
0
11
205
21
52
31
0
0
LWPOLYLINE
5
140
100
AcDbEntity
8
0
100
AcDbPolyline
90
4
70
1
43
0.0
10
198.94999999999999
20
51.999999999999993
10
211.05000000000001
20
51.999999999999993
10
211.05000000000001
20
29.399999999999991
10
198.94999999999999
20
29.399999999999991
0
CIRCLE
5
141
100
AcDbEntity
8
0
100
AcDbCircle
10
75
20
126.5
30
0
40
21.5
210
0
220
0
230
1
0
CIRCLE
5
142
100
AcDbEntity
8
0
100
AcDbCircle
10
205
20
-15
30
0
40
6.5709705810945049
210
0
220
0
230
1
0
CIRCLE
5
143
100
AcDbEntity
8
0
100
AcDbCircle
10
74.936542772459788
20
109.20011928809151
30
0
40
2.3999999999999995
210
0
220
0
230
1
0
CIRCLE
5
144
100
AcDbEntity
8
0
100
AcDbCircle
10
75
20
126.5
30
0
40
14.600000000000001
210
0
220
0
230
1
0
CIRCLE
5
145
100
AcDbEntity
8
0
100
AcDbCircle
10
75
20
126.5
30
0
40
19.999999999999996
210
0
220
0
230
1
0
LINE
5
146
100
AcDbEntity
8
0
100
AcDbLine
10
74.936542772459788
20
106.50010067074655
30
0
11
74.936542772459788
21
111.90013790543647
31
0
0
ENDSEC
0
SECTION
2
OBJECTS
0
DICTIONARY
5
C
100
AcDbDictionary
3
ACAD_GROUP
350
D
3
ACAD_MLINESTYLE
350
17
0
DICTIONARY
5
D
100
AcDbDictionary
0
DICTIONARY
5
1A
330
C
100
AcDbDictionary
0
DICTIONARY
5
17
100
AcDbDictionary
0
ENDSEC
0
EOF
